<svg xmlns="http://www.w3.org/2000/svg" width="1200" height="800" fill="none" viewBox="0 0 1200 800"><path fill="#fff" d="M0 0h1200v800H0z"/><g clip-path="url(#a)"><path fill="#f90" d="M711.826 479.289c-53.979 39.787-132.219 61.015-199.582 61.015-94.454 0-179.486-34.935-243.817-93.039-5.054-4.569-.525-10.796 5.54-7.238 69.425 40.394 155.266 64.695 243.938 64.695 59.802 0 125.588-12.373 186.077-38.049 9.138-3.881 16.78 5.985 7.844 12.616"/><path fill="#f90" d="M734.267 453.613c-6.874-8.814-45.61-4.164-62.997-2.102-5.296.647-6.105-3.963-1.334-7.278 30.851-21.713 81.474-15.446 87.378-8.168 5.903 7.319-1.537 58.063-30.528 82.283-4.447 3.72-8.693 1.739-6.712-3.194 6.51-16.255 21.107-52.686 14.193-61.541"/><path fill="#221f1f" d="M672.484 290.947v-21.106c0-3.194 2.426-5.337 5.337-5.337h94.494c3.033 0 5.459 2.183 5.459 5.337v18.074c-.041 3.032-2.588 6.995-7.117 13.262l-48.965 69.911c18.195-.445 37.401 2.264 53.898 11.564 3.72 2.102 4.731 5.175 5.014 8.208v22.521c0 3.073-3.396 6.672-6.955 4.812-29.072-15.244-67.686-16.901-99.831.162-3.275 1.779-6.712-1.779-6.712-4.852v-21.39c0-3.437.04-9.3 3.477-14.516l56.729-81.353h-49.37c-3.032 0-5.458-2.143-5.458-5.297M327.784 422.641h-28.749c-2.749-.202-4.932-2.264-5.135-4.893V270.205c0-2.952 2.467-5.297 5.54-5.297h26.808c2.789.121 5.013 2.264 5.216 4.933v19.287h.525c6.995-18.64 20.136-27.333 37.846-27.333 17.993 0 29.234 8.693 37.321 27.333 6.954-18.64 22.764-27.333 39.706-27.333 12.049 0 25.231 4.973 33.277 16.133 9.098 12.413 7.238 30.447 7.238 46.256l-.041 93.12c0 2.951-2.466 5.337-5.539 5.337h-28.708c-2.871-.202-5.176-2.507-5.176-5.337v-78.2c0-6.226.566-21.753-.808-27.656-2.143-9.907-8.572-12.697-16.902-12.697-6.954 0-14.233 4.65-17.184 12.09s-2.669 19.894-2.669 28.263v78.2c0 2.951-2.466 5.337-5.539 5.337h-28.708c-2.912-.202-5.176-2.507-5.176-5.337l-.04-78.2c0-16.456 2.709-40.676-17.71-40.676-20.662 0-19.854 23.613-19.854 40.676v78.2c0 2.951-2.466 5.337-5.539 5.337M859.126 261.795c42.658 0 65.746 36.633 65.746 83.213 0 45.003-25.514 80.706-65.746 80.706-41.889 0-64.694-36.633-64.694-82.283 0-45.933 23.088-81.636 64.694-81.636m.243 30.123c-21.187 0-22.522 28.87-22.522 46.863 0 18.033-.283 56.527 22.279 56.527 22.28 0 23.331-31.054 23.331-49.977 0-12.453-.526-27.333-4.286-39.14-3.235-10.27-9.664-14.273-18.802-14.273M980.186 422.641h-28.627c-2.871-.202-5.176-2.507-5.176-5.337l-.04-147.584c.242-2.709 2.628-4.812 5.539-4.812h26.646c2.507.121 4.569 1.82 5.135 4.124v22.562h.526c8.046-20.176 19.331-29.799 39.181-29.799 12.9 0 25.47 4.65 33.56 17.386 7.52 11.807 7.52 31.66 7.52 45.933v92.877c-.32 2.588-2.71 4.65-5.54 4.65h-28.83c-2.63-.202-4.81-2.143-5.09-4.65v-80.14c0-16.133 1.86-39.747-18-39.747-6.991 0-13.42 4.691-16.615 11.807-4.043 9.017-4.569 17.993-4.569 27.94v79.453c-.04 2.951-2.547 5.337-5.62 5.337M597.155 352.164v-6.226c-20.783 0-42.738 4.447-42.738 28.95 0 12.414 6.429 20.824 17.467 20.824 8.087 0 15.325-4.974 19.894-13.06 5.66-9.947 5.377-19.287 5.377-30.488m28.992 70.072c-1.901 1.699-4.65 1.82-6.793.688-9.543-7.925-11.241-11.605-16.497-19.166-15.77 16.093-26.929 20.904-47.389 20.904-24.18 0-43.022-14.92-43.022-44.8 0-23.331 12.656-39.221 30.649-46.985 15.608-6.873 37.402-8.086 54.06-9.987v-3.72c0-6.833.526-14.92-3.477-20.823-3.518-5.297-10.23-7.48-16.133-7.48-10.958 0-20.743 5.62-23.128 17.265-.486 2.588-2.386 5.135-4.974 5.256l-27.899-2.992c-2.345-.525-4.933-2.426-4.286-6.024 6.429-33.803 36.957-43.993 64.29-43.993 13.99 0 32.266 3.72 43.305 14.314 13.99 13.06 12.655 30.487 12.655 49.451v44.801c0 13.464 5.58 19.367 10.837 26.645 1.86 2.588 2.264 5.702-.081 7.642-5.863 4.893-16.295 13.991-22.037 19.085zM220.271 352.164v-6.226c-20.783 0-42.739 4.447-42.739 28.95 0 12.414 6.429 20.824 17.467 20.824 8.087 0 15.325-4.974 19.894-13.06 5.661-9.947 5.378-19.287 5.378-30.488m28.991 70.072c-1.901 1.699-4.65 1.82-6.793.688-9.543-7.925-11.241-11.605-16.497-19.166-15.769 16.093-26.929 20.904-47.389 20.904-24.179 0-43.021-14.92-43.021-44.8 0-23.331 12.655-39.221 30.648-46.985 15.608-6.873 37.402-8.086 54.061-9.987v-3.72c0-6.833.525-14.92-3.478-20.823-3.517-5.297-10.229-7.48-16.133-7.48-10.957 0-20.742 5.62-23.128 17.265-.485 2.588-2.386 5.135-4.973 5.256l-27.9-2.992c-2.345-.525-4.933-2.426-4.286-6.024 6.429-33.803 36.957-43.993 64.29-43.993 13.99 0 32.266 3.72 43.305 14.314 13.99 13.06 12.656 30.487 12.656 49.451v44.801c0 13.464 5.58 19.367 10.836 26.645 1.86 2.588 2.264 5.702-.081 7.642-5.863 4.893-16.295 13.991-22.036 19.085z"/></g><defs><clipPath id="a"><path fill="#fff" d="M135 260h930v280.697H135z"/></clipPath></defs></svg>