<svg xmlns="http://www.w3.org/2000/svg" width="1200" height="800" fill="none" viewBox="0 0 1200 800"><path fill="#fff" d="M0 0h1200v800H0z"/><g clip-path="url(#a)"><path fill="#4a55ff" d="M383.93 443.194q-1.037 0-1.946-.779-.777-.908-.778-1.946 0-.777.13-1.167l30.485-83.284q.39-1.557 1.687-2.595t3.373-1.038h19.199q2.076 0 3.373 1.038t1.687 2.595l30.355 83.284.26 1.167q0 1.038-.908 1.946-.778.779-1.946.779h-15.957q-3.113 0-4.151-2.725l-5.059-13.231h-34.637l-4.929 13.231q-1.038 2.725-4.281 2.725zm54.615-34.637-12.064-34.248-12.065 34.248zM501.108 444.49q-10.509 0-17.644-2.984-7.004-2.983-10.378-7.134-3.372-4.152-3.372-7.395 0-1.296.908-2.075 1.038-.909 2.205-.909h14.789q.779 0 1.427.649 1.557 1.038 2.335 1.687 2.854 2.075 4.93 3.113 2.205.908 5.318.908 3.763 0 6.097-1.427 2.466-1.556 2.466-4.281 0-2.205-1.298-3.502-1.168-1.298-4.67-2.465-3.502-1.298-10.638-2.724-10.767-2.206-16.605-7.135-5.707-5.06-5.707-13.492 0-5.32 3.372-10.118 3.373-4.8 9.989-7.784 6.746-2.984 15.956-2.984 9.211 0 16.087 2.854t10.378 7.005q3.632 4.022 3.632 7.395 0 1.167-.908 2.075-.779.909-1.946.909h-13.492q-1.037 0-1.945-.649a19.7 19.7 0 0 1-2.984-1.946q-2.205-1.686-4.151-2.594-1.946-.909-4.8-.909-3.373 0-5.449 1.557-1.945 1.557-1.945 4.021 0 1.947 1.037 3.244 1.168 1.296 4.67 2.594 3.633 1.168 10.638 2.465 12.583 2.205 18.292 7.784 5.837 5.578 5.837 13.102 0 9.6-8.562 15.438-8.562 5.707-23.869 5.707M565.604 444.49q-10.508 0-17.642-2.984-7.006-2.983-10.379-7.134-3.373-4.152-3.373-7.395 0-1.296.908-2.075 1.038-.909 2.206-.909h14.789q.777 0 1.427.649 1.556 1.038 2.334 1.687 2.855 2.075 4.93 3.113 2.206.908 5.319.908 3.763 0 6.097-1.427 2.465-1.556 2.465-4.281 0-2.205-1.297-3.502-1.167-1.298-4.67-2.465-3.502-1.298-10.638-2.724-10.767-2.206-16.605-7.135-5.708-5.06-5.708-13.492 0-5.32 3.373-10.118 3.372-4.8 9.989-7.784 6.746-2.984 15.956-2.984t16.086 2.854 10.378 7.005q3.632 4.022 3.632 7.395 0 1.167-.907 2.075-.779.909-1.946.909h-13.492q-1.038 0-1.946-.649a19.7 19.7 0 0 1-2.983-1.946q-2.205-1.686-4.152-2.594-1.946-.909-4.8-.909-3.372 0-5.448 1.557-1.946 1.557-1.946 4.021 0 1.947 1.038 3.244 1.167 1.296 4.67 2.594 3.632 1.168 10.638 2.465 12.584 2.205 18.291 7.784 5.838 5.578 5.838 13.102 0 9.6-8.562 15.438-8.562 5.707-23.87 5.707M633.475 444.49q-15.567 0-24.519-8.432t-9.34-24.518V407q.518-15.308 9.47-23.87 9.08-8.692 24.259-8.692 11.027 0 18.551 4.541 7.653 4.41 11.416 12.194 3.892 7.783 3.892 17.902v3.114q0 1.297-.909 2.335-.908.908-2.335.908h-41.512v.908q.26 6.097 2.983 9.859 2.725 3.762 7.914 3.762 3.243 0 5.319-1.297a20 20 0 0 0 3.762-3.373q1.167-1.427 1.816-1.687.778-.389 2.335-.389h16.086q1.167 0 1.946.778.908.649.908 1.817 0 3.372-3.892 7.784-3.763 4.41-11.026 7.653-7.266 3.243-17.124 3.243m10.896-41.901v-.26q0-6.356-2.983-9.988-2.855-3.763-8.043-3.763-5.06 0-8.043 3.763-2.854 3.632-2.854 9.988v.26zM675.401 443.193q-1.426 0-2.335-.908-.908-.908-.908-2.335v-60.971q0-1.428.908-2.336.909-.907 2.335-.907h14.14q1.428 0 2.335.907.909.908.908 2.336v4.41q2.985-3.891 7.914-6.356 5.06-2.595 11.286-2.595c9.514 0 16.084 3.719 19.72 11.157q3.113-4.93 8.69-8.044 5.577-3.113 11.938-3.113 10.63 0 17.252 7.265 6.744 7.135 6.744 21.405v36.842q0 1.297-.906 2.335-.907.909-2.336.908h-15.05q-1.428 0-2.463-.908-.906-.908-.906-2.335v-35.934c0-4.324-.912-7.438-2.725-9.34q-2.597-2.855-7.139-2.855c-2.765 0-5.059.995-6.872 2.984q-2.726 2.854-2.724 9.211v35.934q.002 1.297-.912 2.335-.906.909-2.335.908h-15.045q-1.428 0-2.337-.908-.908-.908-.908-2.335v-35.934q0-6.357-2.853-9.211-2.725-2.984-7.006-2.984-4.15 0-7.005 2.984-2.724 2.854-2.724 9.081v36.064q0 1.297-.909 2.335-.907.909-2.335.908zM825.034 444.491q-12.975 0-20.104-8.692v4.152c0 .864-.308 1.642-.912 2.334q-.906.909-2.335.909h-14.656q-1.298 0-2.335-.909-.913-1.038-.912-2.334v-85.62q-.001-1.427.912-2.335 1.037-.908 2.335-.908h15.824q1.428 0 2.335.908c.604.605.912 1.384.912 2.335v27.761c4.838-5.102 11.153-7.653 18.936-7.653q12.583 0 19.849 8.172c4.845 5.449 7.435 12.843 7.784 22.183q.13 1.687.128 4.671.001 2.853-.128 4.54-.646 14.529-7.784 22.572-7.135 7.914-19.849 7.914m-7.005-17.384q6.1 0 8.69-3.632 2.728-3.633 3.114-9.989.261-2.595.261-4.021 0-1.427-.261-4.022-.386-6.356-3.114-9.989-2.59-3.632-8.69-3.632-5.708 0-8.69 3.502-2.988 3.504-3.241 8.822l-.134 4.8.134 4.929q.384 5.838 3.113 9.6 2.85 3.633 8.818 3.632M861.659 443.194q-1.298 0-2.335-.909-.913-1.038-.912-2.334v-85.62q-.002-1.427.912-2.335 1.037-.908 2.335-.908h15.306q1.429 0 2.336.908t.906 2.335v85.62q0 1.426-.906 2.334-.907.909-2.336.909zM900.91 467.842q-1.17 0-1.946-.779-.777-.778-.779-1.946-.001-.907.389-1.686l10.119-24.389-24.908-58.896q-.39-1.037-.389-1.556c.174-.779.517-1.427 1.04-1.946q.777-.909 1.946-.908h14.789q2.72 0 3.758 2.724l14.79 37.75 15.178-37.75q1.296-2.724 3.892-2.724h14.528q1.169 0 1.946.908.913.778.912 1.816c0 .346-.134.908-.39 1.686l-36.711 84.971c-.692 1.816-1.993 2.725-3.892 2.725zM949.57 443.194q-1.038 0-1.946-.779c-.523-.605-.778-1.254-.778-1.946 0-.518.04-.907.128-1.167l30.484-83.284q.393-1.557 1.691-2.595c.859-.692 1.986-1.038 3.369-1.038h19.202c1.38 0 2.51.346 3.37 1.038.87.692 1.43 1.557 1.69 2.595l30.35 83.284.26 1.167q0 1.038-.9 1.946c-.53.519-1.17.779-1.95.779h-15.96c-2.08 0-3.46-.909-4.15-2.725l-5.06-13.231h-34.636l-4.926 13.231c-.697 1.816-2.12 2.725-4.281 2.725zm54.61-34.637-12.06-34.248-12.065 34.248zM1043.66 443.194q-1.305 0-2.34-.909c-.6-.692-.91-1.47-.91-2.334v-84.323c0-.951.31-1.729.91-2.335q1.035-.908 2.34-.908h17.38c.95 0 1.73.303 2.33.908.69.606 1.04 1.384 1.04 2.335v84.323c0 .951-.35 1.729-1.04 2.334-.6.606-1.38.909-2.33.909z"/><mask id="b" width="188" height="188" x="135" y="306" maskUnits="userSpaceOnUse" style="mask-type:luminance"><path fill="#fff" d="M322.382 306H135v187.382h187.382z"/></mask><g mask="url(#b)"><path fill="url(#c)" d="m152.704 431.316-14.827 34.855c-4.161 9.759-4.943 20.887 5.476 24.763a21.3 21.3 0 0 0 7.538 1.37c8.036 0 15.681-4.545 18.846-11.997l2.987-7.017 22.864-53.703 22.757-53.503c5.432-9.509 8.762-24.144 30.083-32.014-16.575-2.125-49.989-6.5-50.323-6.5-.214.334-2.446 3.727-2.659 4.061-.463.735-.925 1.504-1.28 2.306-.036.067-.036.1-.071.133l-41.355 97.179s-.036.034-.036.067"/><path fill="url(#d)" d="m300.943 431.315 14.828 34.856c4.16 9.757 4.943 20.886-5.476 24.762a21.3 21.3 0 0 1-7.538 1.37c-8.037 0-15.682-4.545-18.846-11.997l-2.987-7.017-22.864-53.703-22.757-53.503c-5.432-9.51-14.6-29.168-39.086-35.523 3.093-7.251 13.696-8.488 21.982-8.488h22.65c.889.034 1.743.134 2.667.268.463.066.96.066 1.423.167.604.133 1.173.367 1.778.534.675.201 1.351.335 1.991.602.284.134.569.301.853.434.889.401 1.743.802 2.56 1.304.57.334 1.031.802 1.565 1.203.462.367.996.701 1.422 1.102.392.401.747.869 1.138 1.304.463.534.96 1.002 1.351 1.57.214.335.392.736.605 1.07.462.735.924 1.504 1.28 2.306.036.066.036.1.071.133l41.355 97.179s.035.034.035.067"/></g></g><defs><radialGradient id="c" cx="0" cy="0" r="1" gradientTransform="rotate(112.412 -13.027 241.647)scale(160.555 109.595)" gradientUnits="userSpaceOnUse"><stop stop-color="#142167"/><stop offset="1" stop-color="#263db5"/></radialGradient><radialGradient id="d" cx="0" cy="0" r="1" gradientTransform="rotate(132.41 74.122 247.367)scale(149.029 521.431)" gradientUnits="userSpaceOnUse"><stop stop-color="#4259d4"/><stop offset="1" stop-color="#6a81fc"/></radialGradient><clipPath id="a"><path fill="#fff" d="M135 306h930v187.382H135z"/></clipPath></defs></svg>