<svg xmlns="http://www.w3.org/2000/svg" width="1200" height="800" fill="none" viewBox="0 0 1200 800"><path fill="#fff" d="M0 0h1200v800H0z"/><g fill-rule="evenodd" clip-path="url(#a)" clip-rule="evenodd"><path fill="#272727" d="M980.022 288.692c-37.993 0-59.457 7.335-71.781 24.525-12.875 17.955-15.463 46.297-15.463 86.214 0 78.36 12.124 111.116 87.244 111.116 9.023 0 39.868-.172 57.868-2.37 7.01-1.161 10.14-6.526 10.14-11.326v-8.654c0-6.734-5.08-11.817-11.84-11.817h-56.17c-42.384 0-50.027-9.99-51.113-66.79v-18.387c.36-58.124 8.003-68.344 51.115-68.344 39.758 0 47.378 9.07 48.698 60.241h-63.166v34.546h83.086c16.36 0 16.36-11.445 16.36-15.203v-11.029c-1.19-79.682-20.25-102.722-84.978-102.722m-109.397 3.045-.904-.238c-7.737-1.627-28.882-2.807-39.365-2.807-37.099 0-56.706 15.533-56.706 44.919v163.614c0 6.735 4.711 11.44 11.465 11.44h13.197c6.753 0 11.467-4.703 11.467-11.44v-160.61c0-7.252 1.835-13.756 23.971-13.756l32.779-.028c3.209.382 6.271-.504 8.629-2.503 2.575-2.169 3.991-5.337 3.991-8.909v-8.278c0-5.431-3.109-9.588-8.524-11.404m-158.438-.41H698.99c-6.751 0-11.467 4.703-11.467 11.44v173.616h-54.882c-33.948 0-47.721-2.159-47.721-56.265V302.767c0-6.734-4.717-11.44-11.467-11.44H560.63c-6.751 0-11.841 4.917-11.841 11.44v117.351c0 76.897 27.889 90.429 86.49 90.429 21.081 0 49.952 0 77.484-3.877l.638-.128c6.8-1.698 10.25-5.592 10.25-11.572V302.767c0-6.734-4.716-11.44-11.464-11.44"/><path fill="#74bb11" d="M508.085 296.701c-1.694-3.603-5.327-5.751-9.716-5.751h-16.963c-4.928 0-8.611 1.985-10.55 5.557l-25.141 36.733 22.009 30.098 38.426-55.12c4.218-5.124 2.758-9.763 1.935-11.517"/><path fill="#009cd9" d="m375.544 296.088-.022-.033c-3.833-5.107-8.932-5.107-10.608-5.107h-16.592c-4.251 0-7.732 1.953-9.55 5.354-1.87 3.483-1.474 7.668 1.114 11.545l61.464 85.205-70.678 98.578c-2.469 3.708-2.815 7.829-.95 11.31 1.829 3.4 5.312 5.348 9.555 5.348h16.96c4.362 0 8.197-2.264 10.115-5.83l79.111-109.013z"/><path fill="#eb2084" d="m516.523 492.492-49.311-67.674-21.691 29.902 38.997 52.047 1.014.443a12.2 12.2 0 0 0 4.919 1.076h16.586c4.007 0 7.408-1.78 9.334-4.889 1.973-3.187 2.028-7.158.152-10.905"/><path fill="#272727" d="M265.44 416.139v57.47c-16.794 2.577-42.392 3.148-51.116 3.148-38.592 0-42.821-10.544-42.821-32.939 0-20.956 7.842-27.682 32.265-27.682zm-53-127.45c-11.925 0-28.187.311-48.42 2.744l-.914.202c-5.894 1.677-8.879 5.548-8.879 11.506v8.275c0 7.056 4.392 11.44 11.465 11.44h46.751c37.641 0 52.997 10.198 52.997 35.198v24.295h-61.672c-48.2 0-68.768 18.382-68.768 61.466 0 48.02 21.289 66.732 75.932 66.732 22.134 0 62.877-1.721 77.936-6.313 12.698-3.525 12.698-13.224 12.698-16.411V355.8c0-45.157-29.154-67.111-89.123-67.111z"/></g><defs><clipPath id="a"><path fill="#fff" d="M135 267h930v265.236H135z"/></clipPath></defs></svg>