<svg xmlns="http://www.w3.org/2000/svg" width="196" height="82" fill="none" viewBox="0 0 196 82"><g filter="url(#a)" opacity=".5"><mask id="b" width="189" height="74" x="3.66" y="0" fill="#000" maskUnits="userSpaceOnUse"><path fill="#fff" d="M3.66 0h189v74h-189z"/><path d="M23.36 19.44q-.92 4.04-3.56 6.84-2.64 2.76-6.16 2.76t-5.6-2.52Q6 24 6 19.76q0-3.12 1.2-6.92Q8.4 9 10.16 6.76q1.8-2.28 3.92-3.44a9.66 9.66 0 0 1 4.64-1.16q3.28 0 5.2 1.88 1.96 1.84 1.96 4.68 0 .68-.16 1.16-.12.44-.68.88-.561.4-1.92.64-1.32.2-2.44.2-.76 0-1.28-.16-.48-.16-.48-.76l.04-.72q0-.72-.24-1.16-.24-.48-.92-.48-.96 0-1.76.84-.76.8-1.56 2.28-.801 1.44-1.44 3.68-.6 2.24-.6 4.08 0 1.32.28 2.32.32.96 1.32.96.759 0 1.32-.68.56-.68.88-1.56h-.36l-.52.04-.4.04q-.6 0-.6-.72 0-1.16.32-2.76t.96-2.04q.68-.48 3.16-.76 2.52-.32 3.76-.32 1.4 0 2.24.2.88.2.88 1.12 0 .8-.36 2.2t-.72 1.72q-.32.32-.52.4-.16.04-.72.08m17.531.28 4.56 7.76q.28.56.28 1 0 .92-1.88 2-1.84 1.12-2.84 1.12-.68 0-1.44-1.32-.72-1.48-.88-1.76l-3.92-7.24-1.56 6.24q-.2.76-.44 1.16-.2.36-1.24.36-1.48 0-3.12-.4-1.64-.44-1.64-1.44 0-.6 1.12-4.68a361 361 0 0 1 1.8-6.44l1.88-6.68q-.76.32-1.36.48t-1.16.16q-.44 0-.64-.28-.16-.32-.16-.8.12-1.04.64-2.76.52-1.76.88-2.04.36-.32.76-.44t1.4-.36q1-.28 2.96-.6a23.6 23.6 0 0 1 3.72-.32q3.76 0 6.4 2.12 2.64 2.08 2.64 5.72 0 3.32-1.8 5.56t-4.96 3.88m-7.56-10.68.48.08 1.16.24q1.2.2 1.84.56.64.32.64 1.2 0 .76-.4 2t-.52 1.6l-.12.32q1.68 0 3.16-1.12 1.52-1.16 1.52-2.8 0-1.32-1.12-2-1.12-.72-2.52-.72-1.36 0-2 .12t-2.12.52m28.21-3.68.56-.48 1.24-1.08q1.039-.92 1.44-1.2a1.72 1.72 0 0 1 1.04-.32q1.52 0 2.16 2.84t.64 5.16q0 2.64-.64 5.44-.6 2.76-1.88 5.8-1.28 3-4.04 5.4-2.721 2.4-6.12 2.4-2.682 0-5.16-2.48-2.48-2.52-2.48-7.72 0-6.08 3.8-11.6Q55.94 2 60.62 2q.6 0 .92.2.36.2.36.76 0 .52-.16 1.28-.121.76-.2 1.12m-.36 1.72q-.081.16-.24.72-.12.52-.32.76-.162.2-1.52 1.08-1.36.88-2.68 3.8-1.32 2.88-1.32 5.6 0 1.08.44 2.12t1.4 1.04q.84 0 1.52-.8t1.28-2q.6-1.24 1.24-3.68t.64-4.72q-.001-1.08-.08-2a9.7 9.7 0 0 0-.36-1.92m22.88 7.48-1.68 4.08-3.76 7.56q-.32.6-.68 1.32-.36.68-.72.92-.36.2-.72.24a7 7 0 0 1-.8.04 8.6 8.6 0 0 1-1.76-.16 6.2 6.2 0 0 1-1.52-.64q-.76-.48-.76-1.6L71.62 23l.16-11.4q0-2 .12-5.12.16-3.16.44-3.56.28-.44.68-.52.4-.12 1-.12 1.96 0 3.04.48t1.24.88q.2.36.2 1.4l-.44 7.36-.32 3.96L81.9 6.32q.92-2.12 1.32-2.84.44-.72.76-.92.36-.2.68-.2h.56q1.08 0 2 .16.96.12 1.44.48.519.32.6.72.08.36.08 1.12l-.16 6.68-.2 4.84 1.96-4.64 3.04-7.52q.44-.96.8-1.4.4-.48 1.16-.48 1.24 0 2.92.6 1.72.6 1.72 1.6 0 .36-.24.92l-3.8 9.24-4.04 8.6-2 3.8q-.64 1.12-1.08 1.44-.441.28-1.68.28-1.12 0-2.16-.2-1-.2-1.36-.72t-.48-1.32q-.08-.8-.08-2.16v-1.08q0-.52.04-1l.12-3.88.2-3.2zm29.774 4.8-.68-4.04-1.8-10.72a17 17 0 0 0-.08-.68q0-.28.04-.52a1.14 1.14 0 0 1 .48-.8q.44-.32 1-.32 1.12 0 2.56.24t1.88.84q.48.6.68 3.12t.2 4.64l-.04.8 1.68-3.88q.6-1.36 1.32-2.88.72-1.56 1.28-2.16.56-.64 1.4-.64 1.96 0 3.24.64 1.28.6 1.28 1.48 0 .4-.2.8-.16.36-.24.56l-10.36 20.68q-.48.96-.92 1.64-.44.64-1.68.64-1.12 0-2.84-.56-1.68-.56-1.68-1.36 0-.56.32-1.16t.44-.8l1.96-3.88zm25.986-14 .56-.48 1.24-1.08q1.041-.92 1.44-1.2.44-.32 1.04-.32 1.521 0 2.16 2.84t.64 5.16q0 2.64-.64 5.44-.6 2.76-1.88 5.8-1.28 3-4.04 5.4-2.72 2.4-6.12 2.4-2.679 0-5.16-2.48-2.48-2.52-2.48-7.72 0-6.08 3.8-11.6Q134.22 2 138.9 2q.6 0 .92.2.36.2.36.76 0 .52-.16 1.28-.12.76-.2 1.12m-.36 1.72q-.08.16-.24.72-.12.52-.32.76-.16.2-1.52 1.08t-2.68 3.8q-1.32 2.88-1.32 5.6a5.4 5.4 0 0 0 .44 2.12q.44 1.04 1.4 1.04.84 0 1.52-.8t1.28-2q.6-1.24 1.24-3.68t.64-4.72q0-1.08-.08-2a9.7 9.7 0 0 0-.36-1.92m29.961-2.56q0 .4-.96 4.2-.96 3.76-1.6 6.24t-1.24 4.48-1.56 4.32q-.96 2.28-3.08 3.72-2.08 1.44-4.48 1.44-3.96 0-5.96-2.28-1.96-2.32-1.96-5.44 0-1.2.24-2.44.4-1.6.56-2.36l2.84-11.88q.36-1.56.8-1.88.48-.36 2.16-.36 1.2 0 2.48.36t1.28 1.2q0 .32-.12.76t-.2.84l-2.92 12.12q-.16.64-.32 1.32-.16.64-.16 1.28-.08.68.36 1.2t1.12.52q.64 0 1.12-.4a2.9 2.9 0 0 0 .8-1.12q.32-.68.52-1.36.24-.72.56-2l3.2-12.04q.28-1.16.72-1.72.44-.6 1.64-.6 1.04 0 1.84.12.84.08 1.56.44.76.36.76 1.32m13.774 15.2 4.56 7.76q.28.56.28 1 0 .92-1.88 2-1.84 1.12-2.84 1.12-.681 0-1.44-1.32-.72-1.48-.88-1.76l-3.92-7.24-1.56 6.24q-.2.76-.44 1.16-.2.36-1.24.36a13.2 13.2 0 0 1-3.12-.4q-1.64-.44-1.64-1.44 0-.6 1.12-4.68a350 350 0 0 1 1.8-6.44l1.88-6.68q-.76.32-1.36.48t-1.16.16q-.44 0-.64-.28-.16-.32-.16-.8.12-1.04.64-2.76.52-1.76.88-2.04.36-.32.76-.44t1.4-.36q1-.28 2.96-.6a23.6 23.6 0 0 1 3.72-.32q3.76 0 6.4 2.12 2.64 2.08 2.64 5.72 0 3.32-1.8 5.56t-4.96 3.88m-7.56-10.68.48.08 1.16.24q1.2.2 1.84.56.64.32.64 1.2 0 .76-.4 2t-.52 1.6l-.12.32q1.68 0 3.16-1.12 1.52-1.16 1.52-2.8 0-1.32-1.12-2-1.12-.72-2.52-.72-1.36 0-2 .12t-2.12.52M29.054 52.72l-.08.8a33 33 0 0 1-.64 4q-.4 1.96-1.16 4.96l-.88 3.68q-.32 1.24-.64 1.96-.28.72-1.92.72-1.28 0-2.76-.48t-1.48-1.48q0-.2.4-1.84.4-1.68.64-2.52l3.44-13.16 1.52-5.04q.24-.88.6-1.4t1.04-.52q1.4 0 3.2.68 1.84.64 2.68 2.08.84 1.4 1.48 4.6.64 3.16.64 5.76.32-2.48.72-4.64.44-2.2.92-4.16a96 96 0 0 0 .68-2.72q.2-.72.44-1.04.24-.36.52-.44.32-.08.64-.08 1.64 0 2.88.56t1.52.84.28.88q0 .48-.16 1.2-.16.68-.28 1.28l-3.04 12.16-1.12 3.76q-.36 1.12-.64 2.12-.28.96-.28 1.12 0 .2.04.6.08.36.16.68 0 .72-.64.92-.64.16-1.64.16-2.28 0-3.4-.64-1.12-.68-1.36-1.36-.24-.72-.4-1.68l-1.24-7.36zM52.101 49l.84.4 1.28.64q.44.32.4.72 0 .52-.12.92-.08.4-.4 1.32l.36.04q1.36 0 3.2.04 1.88.04 2.72.24t.76.88q0 1-.36 2.12a13 13 0 0 1-.72 1.92q-.4.84-.68 1.12t-.76.28l-1.16-.08-5.36-.16-.8 3.36 2.8.08h3.04q.44 0 .88.16.48.12.6.48.16.32.16.8 0 .88-.36 2.12-.32 1.24-.88 1.88-.52.64-1.28.64h-2.12q-1.04 0-2.12-.04h-2.28q-1.12 0-2.04-.12-.88-.12-1.44-.6a7.7 7.7 0 0 1-1.04-1.2q-.44-.68-.68-1.16a2.5 2.5 0 0 1-.24-1.04l.08-.64 1.08-4.72q-.6-.08-.92-.28-.28-.24-.28-.8 0-1.04.28-2.28.32-1.24.76-2.12.48-.92 1.72-.92h.36l1.12-4-1-.08q-.44 0-.72-.2t-.28-.64q0-.64.6-2.68.64-2.04.92-2.36.28-.36.64-.44.36-.12.72-.16l3.92-.08 6.52.24 2 .08q1.08 0 1.6.2.56.2.56 1.04 0 .92-.36 2.16-.32 1.24-.72 2.04-.36.8-.76 1t-1.12.2l-1.32-.04-4.36-.2L53.1 49zm20.339-.16 1.2.4q1.2.52 1.64.8.48.28.48.84 0 .64-.2 1.4-.32.96-.44 1.4l-1.36 4.88-2.12 8q-.28 1.2-.64 1.72-.32.52-1.24.52-1.56 0-3.24-.36t-1.68-1.32q0-.56.32-1.68t.44-1.52l4.32-14.6.16-.48-.68-.04h-2.84q-.921 0-1.44-.04-.52-.08-.76-.28a1.4 1.4 0 0 1-.28-.56 3 3 0 0 1-.08-.64q0-.76.36-2.12.4-1.4.76-1.92t.72-.6q.399-.12.96-.12l1.52.04 4.24.16 5.12.2 2.48.12q.759 0 1.08.24.36.24.36 1 0 .8-.28 1.68-.28.84-.52 1.52-.2.68-.56 1.16-.32.44-1 .44l-.96-.04-3.4-.2zm21.133 5.72-1.68 4.08-3.76 7.56q-.32.6-.68 1.32-.36.68-.72.92-.36.2-.72.24a7 7 0 0 1-.8.04 8.6 8.6 0 0 1-1.76-.16 6.2 6.2 0 0 1-1.52-.64q-.76-.48-.76-1.6l-.04-3.32.16-11.4q0-2 .12-5.12.16-3.16.44-3.56.28-.44.68-.52.4-.12 1-.12 1.96 0 3.04.48t1.24.88q.2.36.2 1.4l-.44 7.36-.32 3.96 4.16-10.04q.92-2.12 1.32-2.84.44-.72.76-.92.36-.2.68-.2h.56q1.08 0 2 .16.96.12 1.44.48.519.32.6.72.08.36.08 1.12l-.16 6.68-.2 4.84 1.96-4.64 3.04-7.52q.44-.96.8-1.4.4-.48 1.16-.48 1.24 0 2.92.6 1.72.6 1.72 1.6 0 .36-.24.92l-3.8 9.24-4.04 8.6-2 3.8q-.64 1.12-1.08 1.44-.441.28-1.68.28-1.12 0-2.16-.2-1-.2-1.36-.72t-.48-1.32q-.08-.8-.08-2.16v-1.08q0-.52.04-1l.12-3.88.2-3.2zm28.377-9.2.56-.48 1.24-1.08q1.041-.92 1.44-1.2.44-.32 1.04-.32 1.521 0 2.16 2.84t.64 5.16q0 2.64-.64 5.44-.6 2.76-1.88 5.8-1.28 3-4.04 5.4-2.72 2.4-6.12 2.4-2.679 0-5.16-2.48-2.48-2.52-2.48-7.72 0-6.08 3.8-11.6 3.84-5.52 8.52-5.52.6 0 .92.2.36.2.36.76 0 .52-.16 1.28-.12.76-.2 1.12m-.36 1.72q-.08.16-.24.72-.12.52-.32.76-.16.2-1.52 1.08t-2.68 3.8q-1.32 2.88-1.32 5.6a5.4 5.4 0 0 0 .44 2.12q.44 1.04 1.4 1.04.84 0 1.52-.8t1.28-2q.6-1.24 1.24-3.68t.64-4.72q0-1.08-.08-2a9.7 9.7 0 0 0-.36-1.92m22.641 12.64 4.56 7.76q.28.56.28 1 0 .92-1.88 2-1.84 1.12-2.84 1.12-.68 0-1.44-1.32-.72-1.48-.88-1.76l-3.92-7.24-1.56 6.24q-.2.76-.44 1.16-.2.36-1.24.36a13.2 13.2 0 0 1-3.12-.4q-1.64-.44-1.64-1.44 0-.6 1.12-4.68a367 367 0 0 1 1.8-6.44l1.88-6.68q-.76.32-1.36.48t-1.16.16q-.44 0-.64-.28-.16-.32-.16-.8.12-1.04.64-2.76.52-1.76.88-2.04.36-.32.76-.44t1.4-.36q1-.28 2.96-.6a23.6 23.6 0 0 1 3.72-.32q3.76 0 6.4 2.12 2.64 2.08 2.64 5.72 0 3.32-1.8 5.56t-4.96 3.88m-7.56-10.68.48.08 1.16.24q1.2.2 1.84.56.64.32.64 1.2 0 .76-.4 2t-.52 1.6l-.12.32q1.68 0 3.16-1.12 1.52-1.16 1.52-2.8 0-1.32-1.12-2-1.12-.72-2.52-.72-1.36 0-2 .12t-2.12.52m27.169 8.64.32.44q1.08 1.68 3.28 5.48 2.2 3.76 2.2 4.72 0 .52-.56.96-.52.48-1.32.92-.76.48-1.6.8-.84.36-1.56.36-.44 0-.8-.52-.36-.68-.48-.88l-3.36-6.64-1.24-2.48-.36 1.96q-.96 4.28-1.12 4.8a2.8 2.8 0 0 1-.32.8q-.2.32-.56.44t-.56.12q-1.2 0-3.2-.56-1.96-.56-1.96-1.36 0-.36.92-3.84t2.88-10.88q2-7.44 2.32-8.48.36-1.08.56-1.24.24-.2.52-.28.32-.08.84-.08 1.36 0 3.08.4t1.72 1.28q0 .32-.12.88-.08.52-.92 3.16L161 52.48q2.72-1.24 4.16-3a15.5 15.5 0 0 0 2.4-3.92q.92-2.16 1.16-2.64t.76-.48q1.16 0 3.04.68 1.88.64 1.88 1.56 0 .8-.52 1.96t-1.48 2.92-2.4 3.6-2.52 2.64q-1.08.76-2 1.2a24 24 0 0 1-1.64.68m21.207-14.8q0 .2-.32 1.16t-.4 1.24l-4.44 12.56q-.36.88-.8 1.24-.4.32-1.28.32l-1.52-.08q-.72 0-1.04-.2t-.32-.88q0-.8.16-1.64.16-.88.32-1.72l1.72-9.64q.12-1.04.28-1.8.201-.8.72-1.04.561-.28 1.32-.32.801-.08 2.04-.08h1.72q.84 0 1.32.16.52.12.52.72m-5.88 22q0 1.56-1 2.8-.999 1.24-2.52 1.24-1.16 0-1.88-.84t-.72-2q0-1.56 1-2.96 1-1.44 2.48-1.44 1.24 0 1.92.96.72.96.72 2.24"/></mask><path fill="#fff" d="M23.36 19.44q-.92 4.04-3.56 6.84-2.64 2.76-6.16 2.76t-5.6-2.52Q6 24 6 19.76q0-3.12 1.2-6.92Q8.4 9 10.16 6.76q1.8-2.28 3.92-3.44a9.66 9.66 0 0 1 4.64-1.16q3.28 0 5.2 1.88 1.96 1.84 1.96 4.68 0 .68-.16 1.16-.12.44-.68.88-.561.4-1.92.64-1.32.2-2.44.2-.76 0-1.28-.16-.48-.16-.48-.76l.04-.72q0-.72-.24-1.16-.24-.48-.92-.48-.96 0-1.76.84-.76.8-1.56 2.28-.801 1.44-1.44 3.68-.6 2.24-.6 4.08 0 1.32.28 2.32.32.96 1.32.96.759 0 1.32-.68.56-.68.88-1.56h-.36l-.52.04-.4.04q-.6 0-.6-.72 0-1.16.32-2.76t.96-2.04q.68-.48 3.16-.76 2.52-.32 3.76-.32 1.4 0 2.24.2.88.2.88 1.12 0 .8-.36 2.2t-.72 1.72q-.32.32-.52.4-.16.04-.72.08m17.531.28 4.56 7.76q.28.56.28 1 0 .92-1.88 2-1.84 1.12-2.84 1.12-.68 0-1.44-1.32-.72-1.48-.88-1.76l-3.92-7.24-1.56 6.24q-.2.76-.44 1.16-.2.36-1.24.36-1.48 0-3.12-.4-1.64-.44-1.64-1.44 0-.6 1.12-4.68a361 361 0 0 1 1.8-6.44l1.88-6.68q-.76.32-1.36.48t-1.16.16q-.44 0-.64-.28-.16-.32-.16-.8.12-1.04.64-2.76.52-1.76.88-2.04.36-.32.76-.44t1.4-.36q1-.28 2.96-.6a23.6 23.6 0 0 1 3.72-.32q3.76 0 6.4 2.12 2.64 2.08 2.64 5.72 0 3.32-1.8 5.56t-4.96 3.88m-7.56-10.68.48.08 1.16.24q1.2.2 1.84.56.64.32.64 1.2 0 .76-.4 2t-.52 1.6l-.12.32q1.68 0 3.16-1.12 1.52-1.16 1.52-2.8 0-1.32-1.12-2-1.12-.72-2.52-.72-1.36 0-2 .12t-2.12.52m28.21-3.68.56-.48 1.24-1.08q1.039-.92 1.44-1.2a1.72 1.72 0 0 1 1.04-.32q1.52 0 2.16 2.84t.64 5.16q0 2.64-.64 5.44-.6 2.76-1.88 5.8-1.28 3-4.04 5.4-2.721 2.4-6.12 2.4-2.682 0-5.16-2.48-2.48-2.52-2.48-7.72 0-6.08 3.8-11.6Q55.94 2 60.62 2q.6 0 .92.2.36.2.36.76 0 .52-.16 1.28-.121.76-.2 1.12m-.36 1.72q-.081.16-.24.72-.12.52-.32.76-.162.2-1.52 1.08-1.36.88-2.68 3.8-1.32 2.88-1.32 5.6 0 1.08.44 2.12t1.4 1.04q.84 0 1.52-.8t1.28-2q.6-1.24 1.24-3.68t.64-4.72q-.001-1.08-.08-2a9.7 9.7 0 0 0-.36-1.92m22.88 7.48-1.68 4.08-3.76 7.56q-.32.6-.68 1.32-.36.68-.72.92-.36.2-.72.24a7 7 0 0 1-.8.04 8.6 8.6 0 0 1-1.76-.16 6.2 6.2 0 0 1-1.52-.64q-.76-.48-.76-1.6L71.62 23l.16-11.4q0-2 .12-5.12.16-3.16.44-3.56.28-.44.68-.52.4-.12 1-.12 1.96 0 3.04.48t1.24.88q.2.36.2 1.4l-.44 7.36-.32 3.96L81.9 6.32q.92-2.12 1.32-2.84.44-.72.76-.92.36-.2.68-.2h.56q1.08 0 2 .16.96.12 1.44.48.519.32.6.72.08.36.08 1.12l-.16 6.68-.2 4.84 1.96-4.64 3.04-7.52q.44-.96.8-1.4.4-.48 1.16-.48 1.24 0 2.92.6 1.72.6 1.72 1.6 0 .36-.24.92l-3.8 9.24-4.04 8.6-2 3.8q-.64 1.12-1.08 1.44-.441.28-1.68.28-1.12 0-2.16-.2-1-.2-1.36-.72t-.48-1.32q-.08-.8-.08-2.16v-1.08q0-.52.04-1l.12-3.88.2-3.2zm29.774 4.8-.68-4.04-1.8-10.72a17 17 0 0 0-.08-.68q0-.28.04-.52a1.14 1.14 0 0 1 .48-.8q.44-.32 1-.32 1.12 0 2.56.24t1.88.84q.48.6.68 3.12t.2 4.64l-.04.8 1.68-3.88q.6-1.36 1.32-2.88.72-1.56 1.28-2.16.56-.64 1.4-.64 1.96 0 3.24.64 1.28.6 1.28 1.48 0 .4-.2.8-.16.36-.24.56l-10.36 20.68q-.48.96-.92 1.64-.44.64-1.68.64-1.12 0-2.84-.56-1.68-.56-1.68-1.36 0-.56.32-1.16t.44-.8l1.96-3.88zm25.986-14 .56-.48 1.24-1.08q1.041-.92 1.44-1.2.44-.32 1.04-.32 1.521 0 2.16 2.84t.64 5.16q0 2.64-.64 5.44-.6 2.76-1.88 5.8-1.28 3-4.04 5.4-2.72 2.4-6.12 2.4-2.679 0-5.16-2.48-2.48-2.52-2.48-7.72 0-6.08 3.8-11.6Q134.22 2 138.9 2q.6 0 .92.2.36.2.36.76 0 .52-.16 1.28-.12.76-.2 1.12m-.36 1.72q-.08.16-.24.72-.12.52-.32.76-.16.2-1.52 1.08t-2.68 3.8q-1.32 2.88-1.32 5.6a5.4 5.4 0 0 0 .44 2.12q.44 1.04 1.4 1.04.84 0 1.52-.8t1.28-2q.6-1.24 1.24-3.68t.64-4.72q0-1.08-.08-2a9.7 9.7 0 0 0-.36-1.92m29.961-2.56q0 .4-.96 4.2-.96 3.76-1.6 6.24t-1.24 4.48-1.56 4.32q-.96 2.28-3.08 3.72-2.08 1.44-4.48 1.44-3.96 0-5.96-2.28-1.96-2.32-1.96-5.44 0-1.2.24-2.44.4-1.6.56-2.36l2.84-11.88q.36-1.56.8-1.88.48-.36 2.16-.36 1.2 0 2.48.36t1.28 1.2q0 .32-.12.76t-.2.84l-2.92 12.12q-.16.64-.32 1.32-.16.64-.16 1.28-.08.68.36 1.2t1.12.52q.64 0 1.12-.4a2.9 2.9 0 0 0 .8-1.12q.32-.68.52-1.36.24-.72.56-2l3.2-12.04q.28-1.16.72-1.72.44-.6 1.64-.6 1.04 0 1.84.12.84.08 1.56.44.76.36.76 1.32m13.774 15.2 4.56 7.76q.28.56.28 1 0 .92-1.88 2-1.84 1.12-2.84 1.12-.681 0-1.44-1.32-.72-1.48-.88-1.76l-3.92-7.24-1.56 6.24q-.2.76-.44 1.16-.2.36-1.24.36a13.2 13.2 0 0 1-3.12-.4q-1.64-.44-1.64-1.44 0-.6 1.12-4.68a350 350 0 0 1 1.8-6.44l1.88-6.68q-.76.32-1.36.48t-1.16.16q-.44 0-.64-.28-.16-.32-.16-.8.12-1.04.64-2.76.52-1.76.88-2.04.36-.32.76-.44t1.4-.36q1-.28 2.96-.6a23.6 23.6 0 0 1 3.72-.32q3.76 0 6.4 2.12 2.64 2.08 2.64 5.72 0 3.32-1.8 5.56t-4.96 3.88m-7.56-10.68.48.08 1.16.24q1.2.2 1.84.56.64.32.64 1.2 0 .76-.4 2t-.52 1.6l-.12.32q1.68 0 3.16-1.12 1.52-1.16 1.52-2.8 0-1.32-1.12-2-1.12-.72-2.52-.72-1.36 0-2 .12t-2.12.52M29.054 52.72l-.08.8a33 33 0 0 1-.64 4q-.4 1.96-1.16 4.96l-.88 3.68q-.32 1.24-.64 1.96-.28.72-1.92.72-1.28 0-2.76-.48t-1.48-1.48q0-.2.4-1.84.4-1.68.64-2.52l3.44-13.16 1.52-5.04q.24-.88.6-1.4t1.04-.52q1.4 0 3.2.68 1.84.64 2.68 2.08.84 1.4 1.48 4.6.64 3.16.64 5.76.32-2.48.72-4.64.44-2.2.92-4.16a96 96 0 0 0 .68-2.72q.2-.72.44-1.04.24-.36.52-.44.32-.08.64-.08 1.64 0 2.88.56t1.52.84.28.88q0 .48-.16 1.2-.16.68-.28 1.28l-3.04 12.16-1.12 3.76q-.36 1.12-.64 2.12-.28.96-.28 1.12 0 .2.04.6.08.36.16.68 0 .72-.64.92-.64.16-1.64.16-2.28 0-3.4-.64-1.12-.68-1.36-1.36-.24-.72-.4-1.68l-1.24-7.36zM52.101 49l.84.4 1.28.64q.44.32.4.72 0 .52-.12.92-.08.4-.4 1.32l.36.04q1.36 0 3.2.04 1.88.04 2.72.24t.76.88q0 1-.36 2.12a13 13 0 0 1-.72 1.92q-.4.84-.68 1.12t-.76.28l-1.16-.08-5.36-.16-.8 3.36 2.8.08h3.04q.44 0 .88.16.48.12.6.48.16.32.16.8 0 .88-.36 2.12-.32 1.24-.88 1.88-.52.64-1.28.64h-2.12q-1.04 0-2.12-.04h-2.28q-1.12 0-2.04-.12-.88-.12-1.44-.6a7.7 7.7 0 0 1-1.04-1.2q-.44-.68-.68-1.16a2.5 2.5 0 0 1-.24-1.04l.08-.64 1.08-4.72q-.6-.08-.92-.28-.28-.24-.28-.8 0-1.04.28-2.28.32-1.24.76-2.12.48-.92 1.72-.92h.36l1.12-4-1-.08q-.44 0-.72-.2t-.28-.64q0-.64.6-2.68.64-2.04.92-2.36.28-.36.64-.44.36-.12.72-.16l3.92-.08 6.52.24 2 .08q1.08 0 1.6.2.56.2.56 1.04 0 .92-.36 2.16-.32 1.24-.72 2.04-.36.8-.76 1t-1.12.2l-1.32-.04-4.36-.2L53.1 49zm20.339-.16 1.2.4q1.2.52 1.64.8.48.28.48.84 0 .64-.2 1.4-.32.96-.44 1.4l-1.36 4.88-2.12 8q-.28 1.2-.64 1.72-.32.52-1.24.52-1.56 0-3.24-.36t-1.68-1.32q0-.56.32-1.68t.44-1.52l4.32-14.6.16-.48-.68-.04h-2.84q-.921 0-1.44-.04-.52-.08-.76-.28a1.4 1.4 0 0 1-.28-.56 3 3 0 0 1-.08-.64q0-.76.36-2.12.4-1.4.76-1.92t.72-.6q.399-.12.96-.12l1.52.04 4.24.16 5.12.2 2.48.12q.759 0 1.08.24.36.24.36 1 0 .8-.28 1.68-.28.84-.52 1.52-.2.68-.56 1.16-.32.44-1 .44l-.96-.04-3.4-.2zm21.133 5.72-1.68 4.08-3.76 7.56q-.32.6-.68 1.32-.36.68-.72.92-.36.2-.72.24a7 7 0 0 1-.8.04 8.6 8.6 0 0 1-1.76-.16 6.2 6.2 0 0 1-1.52-.64q-.76-.48-.76-1.6l-.04-3.32.16-11.4q0-2 .12-5.12.16-3.16.44-3.56.28-.44.68-.52.4-.12 1-.12 1.96 0 3.04.48t1.24.88q.2.36.2 1.4l-.44 7.36-.32 3.96 4.16-10.04q.92-2.12 1.32-2.84.44-.72.76-.92.36-.2.68-.2h.56q1.08 0 2 .16.96.12 1.44.48.519.32.6.72.08.36.08 1.12l-.16 6.68-.2 4.84 1.96-4.64 3.04-7.52q.44-.96.8-1.4.4-.48 1.16-.48 1.24 0 2.92.6 1.72.6 1.72 1.6 0 .36-.24.92l-3.8 9.24-4.04 8.6-2 3.8q-.64 1.12-1.08 1.44-.441.28-1.68.28-1.12 0-2.16-.2-1-.2-1.36-.72t-.48-1.32q-.08-.8-.08-2.16v-1.08q0-.52.04-1l.12-3.88.2-3.2zm28.377-9.2.56-.48 1.24-1.08q1.041-.92 1.44-1.2.44-.32 1.04-.32 1.521 0 2.16 2.84t.64 5.16q0 2.64-.64 5.44-.6 2.76-1.88 5.8-1.28 3-4.04 5.4-2.72 2.4-6.12 2.4-2.679 0-5.16-2.48-2.48-2.52-2.48-7.72 0-6.08 3.8-11.6 3.84-5.52 8.52-5.52.6 0 .92.2.36.2.36.76 0 .52-.16 1.28-.12.76-.2 1.12m-.36 1.72q-.08.16-.24.72-.12.52-.32.76-.16.2-1.52 1.08t-2.68 3.8q-1.32 2.88-1.32 5.6a5.4 5.4 0 0 0 .44 2.12q.44 1.04 1.4 1.04.84 0 1.52-.8t1.28-2q.6-1.24 1.24-3.68t.64-4.72q0-1.08-.08-2a9.7 9.7 0 0 0-.36-1.92m22.641 12.64 4.56 7.76q.28.56.28 1 0 .92-1.88 2-1.84 1.12-2.84 1.12-.68 0-1.44-1.32-.72-1.48-.88-1.76l-3.92-7.24-1.56 6.24q-.2.76-.44 1.16-.2.36-1.24.36a13.2 13.2 0 0 1-3.12-.4q-1.64-.44-1.64-1.44 0-.6 1.12-4.68a367 367 0 0 1 1.8-6.44l1.88-6.68q-.76.32-1.36.48t-1.16.16q-.44 0-.64-.28-.16-.32-.16-.8.12-1.04.64-2.76.52-1.76.88-2.04.36-.32.76-.44t1.4-.36q1-.28 2.96-.6a23.6 23.6 0 0 1 3.72-.32q3.76 0 6.4 2.12 2.64 2.08 2.64 5.72 0 3.32-1.8 5.56t-4.96 3.88m-7.56-10.68.48.08 1.16.24q1.2.2 1.84.56.64.32.64 1.2 0 .76-.4 2t-.52 1.6l-.12.32q1.68 0 3.16-1.12 1.52-1.16 1.52-2.8 0-1.32-1.12-2-1.12-.72-2.52-.72-1.36 0-2 .12t-2.12.52m27.169 8.64.32.44q1.08 1.68 3.28 5.48 2.2 3.76 2.2 4.72 0 .52-.56.96-.52.48-1.32.92-.76.48-1.6.8-.84.36-1.56.36-.44 0-.8-.52-.36-.68-.48-.88l-3.36-6.64-1.24-2.48-.36 1.96q-.96 4.28-1.12 4.8a2.8 2.8 0 0 1-.32.8q-.2.32-.56.44t-.56.12q-1.2 0-3.2-.56-1.96-.56-1.96-1.36 0-.36.92-3.84t2.88-10.88q2-7.44 2.32-8.48.36-1.08.56-1.24.24-.2.52-.28.32-.08.84-.08 1.36 0 3.08.4t1.72 1.28q0 .32-.12.88-.08.52-.92 3.16L161 52.48q2.72-1.24 4.16-3a15.5 15.5 0 0 0 2.4-3.92q.92-2.16 1.16-2.64t.76-.48q1.16 0 3.04.68 1.88.64 1.88 1.56 0 .8-.52 1.96t-1.48 2.92-2.4 3.6-2.52 2.64q-1.08.76-2 1.2a24 24 0 0 1-1.64.68m21.207-14.8q0 .2-.32 1.16t-.4 1.24l-4.44 12.56q-.36.88-.8 1.24-.4.32-1.28.32l-1.52-.08q-.72 0-1.04-.2t-.32-.88q0-.8.16-1.64.16-.88.32-1.72l1.72-9.64q.12-1.04.28-1.8.201-.8.72-1.04.561-.28 1.32-.32.801-.08 2.04-.08h1.72q.84 0 1.32.16.52.12.52.72m-5.88 22q0 1.56-1 2.8-.999 1.24-2.52 1.24-1.16 0-1.88-.84t-.72-2q0-1.56 1-2.96 1-1.44 2.48-1.44 1.24 0 1.92.96.72.96.72 2.24"/><path fill="#000" d="m23.36 19.44-.143-1.995-1.479.106-.329 1.445zm-3.56 6.84 1.444 1.382.006-.005.004-.005zm-11.76.24-1.555 1.258.006.008.006.007zM7.2 12.84l1.906.602.002-.005zm2.96-6.08L8.59 5.52l-.003.004zm3.92-3.44-.947-1.762-.007.004-.007.003zm9.84.72-1.4 1.429.015.015.015.014zm1.8 5.84-1.898-.632-.018.052-.014.054zm-.68.88 1.162 1.627.037-.026.036-.028zm-1.92.64.299 1.977.024-.003.024-.004zm-3.72.04-.633 1.897.022.008.022.007zm-.48-.76-1.998-.11-.003.054v.056zm.04-.72 1.996.11.003-.055V9.96zm-.24-1.16-1.79.894.016.032.017.032zm-2.68.36-1.45-1.38v.002zm-1.56 2.28 1.747.971.006-.01.006-.01zm-1.44 3.68-1.924-.55-.004.016-.005.016zm-.32 6.4-1.927.54.013.046.016.046zm2.64.28 1.543 1.271zm.88-1.56 1.879.684.976-2.684h-2.856zm-.36 0v-2h-.078l-.076.006zm-.52.04-.154-1.994-.023.002-.023.002zm-.4.04v2h.099l.1-.01zm-.28-3.48 1.96.392zm.96-2.04 1.132 1.648.01-.007.01-.007zm3.16-.76.224 1.987.013-.001.014-.002zm6-.12-.464 1.946.01.002.01.002zm.52 3.32 1.936.498zm-.72 1.72-1.33-1.495-.043.04-.042.04zm-.52.4.484 1.94.132-.033.126-.05zm-.72.08-1.95-.444c-.541 2.373-1.57 4.325-3.066 5.912l1.455 1.372 1.455 1.372c2.024-2.146 3.369-4.754 4.055-7.768zm-3.56 6.84-1.446-1.382c-1.418 1.482-2.963 2.142-4.715 2.142v4c2.942 0 5.504-1.18 7.605-3.378zm-6.16 2.76v-2c-1.803 0-3.084-.613-4.058-1.793L8.039 26.52l-1.542 1.273c1.799 2.18 4.251 3.247 7.142 3.247zm-5.6-2.52 1.554-1.258C8.6 24.034 7.999 22.27 7.999 19.76H4c0 3.142.76 5.886 2.486 8.018zM6 19.76h2c0-1.828.352-3.928 1.106-6.318L7.2 12.84l-1.907-.602C4.448 14.915 4 17.428 4 19.76zm1.2-6.92 1.908.597c.755-2.417 1.649-4.2 2.624-5.441L10.159 6.76 8.587 5.524C7.215 7.27 6.135 9.54 5.29 12.244zm2.96-6.08L11.728 8c1.066-1.351 2.175-2.304 3.31-2.925l-.96-1.755-.96-1.755c-1.691.926-3.196 2.266-4.53 3.956zm3.92-3.44.945 1.762a7.66 7.66 0 0 1 3.694-.922v-4c-1.98 0-3.852.467-5.586 1.398zm4.64-1.16v2c1.785 0 2.973.5 3.8 1.309l1.4-1.429 1.398-1.429C23.586.914 21.308.16 18.72.16zm5.2 1.88-1.37 1.458c.88.825 1.33 1.846 1.33 3.222h4c0-2.41-.858-4.51-2.592-6.138zm1.96 4.68h-2c0 .307-.038.468-.058.528l1.897.632 1.898.632c.193-.58.262-1.193.262-1.792zm-.16 1.16-1.93-.526a.8.8 0 0 1 .117-.257c.01-.014-.012.019-.103.09l1.235 1.573 1.236 1.573c.534-.42 1.133-1.045 1.374-1.927zm-.68.88-1.163-1.627c.032-.024-.02.02-.23.09-.2.066-.486.139-.875.207l.347 1.97.348 1.97c.963-.17 1.979-.442 2.735-.982zm-1.92.64-.3-1.977a14.4 14.4 0 0 1-2.14.177v4q1.296-.002 2.739-.223zm-2.44.2v-2c-.38 0-.595-.042-.693-.072L19.4 11.44l-.588 1.912c.596.183 1.235.248 1.868.248zm-1.28-.16.632-1.897c.22.073.5.246.698.559.18.283.19.523.19.578h-4a2.9 2.9 0 0 0 .428 1.558c.358.566.88.92 1.419 1.1zm-.48-.76 1.996.11.04-.72-1.997-.11-1.997-.11-.04.72zm.04-.72h2c0-.678-.11-1.43-.485-2.118l-1.756.958-1.756.958c-.03-.055-.03-.077-.022-.043.007.035.018.113.018.245zm-.24-1.16 1.788-.894C19.914 6.716 18.77 6.32 17.8 6.32v4c-.002 0-.038 0-.1-.013a1 1 0 0 1-.255-.094 1.2 1.2 0 0 1-.514-.519zm-.92-.48v-2c-1.3 0-2.383.593-3.21 1.46l1.45 1.38 1.448 1.38a1 1 0 0 1 .253-.205.1.1 0 0 1 .058-.015zm-1.76.84-1.45-1.378c-.675.71-1.292 1.637-1.87 2.707l1.76.951 1.759.951c.488-.904.91-1.496 1.25-1.854zm-1.56 2.28-1.75-.971c-.63 1.136-1.161 2.517-1.614 4.102l1.923.549 1.923.55c.4-1.402.83-2.475 1.265-3.259zm-1.44 3.68-1.933-.518c-.434 1.621-.668 3.158-.668 4.598h4c0-1.014.166-2.196.532-3.562zm-.6 4.08h-2c0 1.015.106 1.977.353 2.86l1.926-.54 1.926-.54c-.126-.45-.206-1.035-.206-1.78zm.28 2.32-1.898.633c.206.619.58 1.246 1.21 1.705.634.46 1.348.622 2.007.622v-4c-.007 0 .154.002.347.142.19.14.237.286.23.265zm1.32.96v2c1.202 0 2.177-.576 2.863-1.409L15.36 21.8l-1.544-1.271c-.045.055-.044.035.018.003a.5.5 0 0 1 .206-.052zm1.32-.68 1.543 1.271c.527-.64.93-1.36 1.216-2.148l-1.88-.683-1.88-.683a3.3 3.3 0 0 1-.544.972zm.88-1.56v-2h-.36v4h.36zm-.36 0-.154-1.994-.52.04.153 1.994.154 1.994.52-.04zm-.52.04-.2-1.99-.4.04.2 1.99.198 1.99.4-.04zm-.4.04v-2c.213 0 .704.082 1.086.54.163.196.242.39.278.52a1 1 0 0 1 .035.22h-4c0 .468.09 1.192.614 1.82.582.698 1.372.9 1.986.9zm-.6-.72h2c0-.6.083-1.383.28-2.368l-1.96-.392-1.962-.392c-.23 1.148-.359 2.206-.359 3.152zm.32-2.76 1.96.392c.088-.438.18-.706.249-.85.073-.155.065-.059-.117.066L15.64 14.8l-1.133-1.648c-.608.418-.99 1.002-1.236 1.526-.252.536-.426 1.142-.552 1.77zm.96-2.04 1.153 1.634c-.095.067-.026-.007.444-.12.416-.1 1.004-.198 1.787-.287l-.225-1.987-.224-1.987c-.87.098-1.636.22-2.273.372-.584.14-1.268.354-1.816.741zm3.16-.76.251 1.984c1.664-.211 2.814-.304 3.508-.304v-4c-.959 0-2.316.12-4.012.336zm3.76-.32v2c.86 0 1.432.064 1.776.146l.463-1.946.463-1.946c-.775-.184-1.697-.254-2.703-.254zm2.24.2-.444 1.95a.92.92 0 0 1-.47-.334c-.201-.258-.207-.487-.207-.496h4c0-.623-.152-1.345-.647-1.976-.499-.634-1.17-.954-1.79-1.094zm.88 1.12h-2c0 .282-.072.823-.298 1.702l1.937.498 1.937.498c.254-.988.423-1.913.423-2.698zm-.36 2.2-1.938-.498a7 7 0 0 1-.268.856c-.033.08-.05.105-.042.093.002-.004.062-.104.198-.226l1.33 1.495 1.328 1.495c.468-.416.729-.961.876-1.313.172-.41.32-.889.452-1.404zm-.72 1.72-1.415-1.414-.073.07-.022.019.057-.038c.034-.021.098-.057.19-.094l.742 1.857.743 1.857c.536-.214.951-.603 1.191-.843zm-.52.4-.486-1.94c.057-.015.09-.019.076-.017l-.072.01q-.123.014-.381.032l.142 1.995.143 1.995c.327-.023.754-.057 1.062-.135zm16.811.36-.921-1.775-1.871.97 1.068 1.818zm4.56 7.76 1.789-.894-.03-.06-.035-.06zm-1.6 3-.996-1.734-.022.012-.022.014zm-4.28-.2-1.798.875.03.063.035.06zm-.88-1.76-1.759.952.011.02.012.02zm-3.92-7.24 1.759-.952-2.45-4.526-1.25 4.993zm-1.56 6.24 1.934.509.003-.012.003-.012zm-.44 1.16-1.715-1.029-.017.029-.016.029zm-4.36-.04-.518 1.932.022.006.022.005zm-.52-6.12 1.929.53.001-.005zm1.8-6.44 1.92.563.002-.01.003-.011zm1.88-6.68 1.925.542 1.125-3.996-3.826 1.61zm-1.36.48.515 1.932zm-1.8-.12-1.789.894.07.14.092.128zm-.16-.8-1.987-.23-.013.115v.115zm.64-2.76 1.915.579.003-.012zm.88-2.04L31 5.739l.052-.04.049-.044zm.76-.44-.575-1.916zm1.4-.36.467 1.945.036-.009.036-.01zm2.96-.6L34.575.785l-.006.001zm10.12 1.8L43.76 6.12l.007.005.007.006zm.84 11.28-1.559-1.253zm-12.52-6.8-.522-1.93.193 3.903zm.48.08.405-1.959-.038-.007-.038-.007zm1.16.24-.405 1.959.038.007.038.007zm1.84.56-.98 1.743.042.024.044.022zm.24 3.2 1.904.614zm-.52 1.6 1.873.702.013-.034.011-.036zm-.12.32-1.873-.702-1.013 2.702h2.886zm3.16-1.12 1.207 1.595.006-.005zm.4-4.8-1.081 1.682.021.014.022.014zm.92 10.6-1.724 1.013 4.56 7.76 1.724-1.013 1.724-1.013-4.56-7.76zm4.56 7.76-1.789.894c.048.096.067.153.073.175s-.004-.004-.004-.069h4c0-.707-.22-1.353-.491-1.894zm.28 1h-2c0-.404.206-.551.073-.41-.124.132-.407.364-.95.676l.997 1.734.996 1.734c.711-.408 1.368-.87 1.871-1.404.494-.525 1.013-1.313 1.013-2.33zm-1.88 2-1.04-1.708c-.552.336-.99.556-1.324.688-.35.137-.49.14-.476.14v4c1.265 0 2.625-.648 3.88-1.412zm-2.84 1.12v-2c.455 0 .682.224.651.196a1 1 0 0 1-.114-.136 4 4 0 0 1-.244-.378l-1.733.998-1.733.998c.305.53.671 1.053 1.122 1.466.449.412 1.143.856 2.051.856zm-1.44-1.32 1.799-.875c-.465-.955-.794-1.618-.942-1.877l-1.737.992-1.736.992.021.04.054.102.172.34q.213.425.57 1.16zm-.88-1.76 1.759-.952-3.92-7.24-1.759.952-1.759.952 3.92 7.24zm-3.92-7.24-1.94-.485-1.56 6.24 1.94.485 1.94.485 1.56-6.24zm-1.56 6.24-1.934-.509a5 5 0 0 1-.146.47 2 2 0 0 1-.075.17l1.715 1.029 1.715 1.029c.301-.502.506-1.097.66-1.68zm-.44 1.16-1.748-.971c.15-.271.346-.443.496-.542a1.1 1.1 0 0 1 .285-.138c.05-.014-.015.011-.273.011v4c.435 0 .924-.035 1.388-.17.434-.126 1.165-.434 1.6-1.219zm-1.24.36v-2a11.2 11.2 0 0 1-2.646-.343l-.474 1.943-.474 1.943c1.227.3 2.427.457 3.594.457zm-3.12-.4.518-1.932a2.3 2.3 0 0 1-.382-.132c-.076-.036-.08-.048-.046-.019a.8.8 0 0 1 .178.247c.066.14.092.28.092.396h-4c0 .965.43 1.782 1.09 2.363.598.524 1.337.822 2.032 1.009zm-1.64-1.44h2c0 .11-.013.107.035-.143.038-.202.1-.486.19-.861.18-.749.453-1.795.824-3.147l-1.929-.529-1.929-.53a109 109 0 0 0-.856 3.275c-.097.404-.175.755-.23 1.043a5 5 0 0 0-.105.892zm1.12-4.68 1.93.525a358 358 0 0 1 1.79-6.403l-1.92-.562-1.92-.562a363 363 0 0 0-1.81 6.477zm1.8-6.44 1.925.542 1.88-6.68-1.925-.542-1.925-.542-1.88 6.68zm1.88-6.68-.776-1.843a9 9 0 0 1-1.1.39l.516 1.933.515 1.932a13 13 0 0 0 1.621-.569zm-1.36.48-.515-1.932a2.5 2.5 0 0 1-.645.092v4c.565 0 1.125-.08 1.675-.227zm-1.16.16v-2c.06 0 .22.009.422.098.219.095.42.255.566.46L28.41 9.76l-1.627 1.162c.611.857 1.528 1.118 2.267 1.118zm-.64-.28 1.789-.894a.6.6 0 0 1 .052.142c.004.016 0 .003 0-.048h-4c0 .53.086 1.125.37 1.694zm-.16-.8 1.987.23c.06-.521.235-1.31.567-2.411L28.891 6.2l-1.914-.579c-.36 1.192-.613 2.243-.713 3.11zm.64-2.76 1.918.567c.163-.553.297-.93.398-1.165.051-.117.078-.163.077-.161s-.02.032-.057.078a1.4 1.4 0 0 1-.228.22L29.771 4.16l-1.228-1.579c-.334.26-.546.57-.665.763a5 5 0 0 0-.343.674 15 15 0 0 0-.562 1.615zm.88-2.04L31.1 5.655c.029-.026.044-.034.043-.034l-.01.005-.027.01-.575-1.916-.575-1.916a4 4 0 0 0-1.514.861zm.76-.44.575 1.916c.207-.062.624-.171 1.292-.331L31.93 3.36l-.467-1.945a32 32 0 0 0-1.508.39zm1.4-.36.54 1.926c.557-.156 1.456-.342 2.742-.552l-.322-1.974L34.57.786c-1.327.217-2.401.43-3.177.648zm2.96-.6.316 1.975a22 22 0 0 1 3.404-.295v-4c-1.269 0-2.616.118-4.036.345zm3.72-.32v2c2.105 0 3.782.583 5.148 1.68l1.252-1.56L46.263 3C44.11 1.27 41.52.44 38.611.44zm6.4 2.12-1.238 1.571c1.235.973 1.878 2.277 1.878 4.149h4c0-2.981-1.117-5.49-3.402-7.291zm2.64 5.72h-2c0 1.832-.488 3.223-1.359 4.307l1.56 1.253 1.558 1.253c1.529-1.903 2.241-4.218 2.241-6.813zm-1.8 5.56-1.559-1.253c-.99 1.232-2.405 2.363-4.322 3.358l.921 1.775.921 1.775c2.296-1.191 4.188-2.647 5.598-4.402zm-12.52-6.8-.329 1.973.48.08.33-1.973.328-1.973-.48-.08zm.48.08-.405 1.959 1.16.24.405-1.959.405-1.959-1.16-.24zm1.16.24-.329 1.973c.701.117 1.054.254 1.189.33l.98-1.743.98-1.743c-.718-.404-1.592-.64-2.491-.79zm1.84.56-.894 1.789a.93.93 0 0 1-.39-.388c-.087-.162-.076-.26-.076-.201h4c0-1.135-.472-2.352-1.745-2.989zm.64 1.2h-2c0 .201-.062.638-.303 1.386l1.903.614 1.904.614c.291-.905.496-1.802.496-2.614zm-.4 2-1.903-.614c-.268.83-.438 1.353-.514 1.582l1.897.632 1.898.632c.083-.25.26-.794.526-1.618zm-.52 1.6-1.873-.702-.12.32 1.873.702 1.873.702.12-.32zm-.12.32v2c1.602 0 3.071-.545 4.367-1.525l-1.207-1.595-1.207-1.595c-.677.513-1.314.715-1.953.715zm3.16-1.12 1.213 1.59c1.416-1.08 2.307-2.565 2.307-4.39h-4c0 .361-.123.744-.733 1.21zm1.52-2.8h2c0-1.572-.733-2.89-2.082-3.71l-1.038 1.71-1.038 1.71a.6.6 0 0 1 .114.084c.015.015.019.023.02.023l.01.032a.7.7 0 0 1 .014.151zm-1.12-2 1.082-1.682C39.966 6.739 38.747 6.4 37.45 6.4v4c.57 0 1.032.14 1.439.402zm-2.52-.72v-2c-.927 0-1.75.038-2.368.154l.368 1.966.369 1.966c.234-.044.745-.086 1.631-.086zm-2 .12-.368-1.966c-.512.096-1.286.288-2.274.555l.522 1.931.522 1.93c.985-.266 1.625-.42 1.967-.484zm26.09-3.16-1.953-.434-1.302 5.857 4.556-3.904zm.56-.48 1.3 1.519.007-.006.006-.005zm1.24-1.08 1.313 1.508.005-.005.006-.005zm1.44-1.2 1.146 1.638.015-.01.015-.01zm3.2 2.52-1.952.44zm0 10.6-1.95-.446-.003.01-.002.011zm-1.88 5.8 1.839.785.003-.009zm-4.04 5.4-1.313-1.51-.006.006-.005.004zm-11.28-.08-1.426 1.403.005.006.006.005zM52.1 7.52l-1.643-1.142-.005.008zm9.44-5.32-1.06 1.696.043.027.045.025zm.2 2.04-1.958-.412-.01.05-.008.05zm-.56 2.84 1.92-.56-1.429-4.896-2.28 4.562zm-.24.72-1.924-.55-.014.05-.012.05zm-.32.76-1.537-1.28-.013.015-.013.016zm-4.2 4.88 1.817.833.005-.01zm-.88 7.72 1.841-.78zm2.92.24-1.525-1.295zm1.28-2 1.788.894.006-.011.006-.012zM61.54 9l-1.994.166v.007zm0-3.64 1.3 1.519.56-.48-1.3-1.519-1.302-1.519-.56.48zm.56-.48 1.313 1.508 1.24-1.08L63.34 3.8l-1.313-1.508-1.24 1.08zm1.24-1.08 1.324 1.498c.704-.623 1.103-.948 1.262-1.06L64.78 2.6 63.633.962c-.374.261-.936.736-1.618 1.34zm1.44-1.2 1.175 1.617a.4.4 0 0 1-.108.055c-.035.01-.049.008-.028.008v-4c-.777 0-1.546.215-2.216.703zm1.04-.32v2a.56.56 0 0 1-.254-.067c-.076-.041-.082-.07-.039-.012.11.145.316.536.501 1.359l1.951-.44 1.951-.44c-.241-1.07-.61-2.1-1.219-2.9-.664-.874-1.647-1.5-2.892-1.5zm2.16 2.84-1.952.44c.402 1.783.591 3.353.591 4.72h4c0-1.726-.237-3.597-.689-5.6zm.64 5.16h-2c0 1.598-.194 3.261-.59 4.994l1.95.446 1.949.446c.457-2 .69-3.963.69-5.886zm-.64 5.44-1.955-.425c-.37 1.702-.956 3.517-1.77 5.449l1.844.776 1.843.776c.894-2.122 1.561-4.173 1.992-6.151zm-1.88 5.8-1.84-.785c-.721 1.69-1.873 3.25-3.513 4.676l1.312 1.509 1.313 1.51c2.04-1.775 3.581-3.815 4.567-6.125zm-4.04 5.4-1.324-1.5c-1.475 1.301-3.052 1.9-4.797 1.9v4c2.788 0 5.291-1.001 7.443-2.9zm-6.12 2.4v-2c-1.108 0-2.348-.496-3.747-1.894L50.78 26.84l-1.414 1.414c1.908 1.908 4.108 3.066 6.574 3.066zm-5.16-2.48 1.425-1.403c-1.143-1.161-1.906-3.13-1.906-6.317h-4c0 3.746.89 6.924 3.055 9.123zm-2.48-7.72h2c0-3.607 1.118-7.084 3.447-10.466L52.1 7.52l-1.647-1.134C47.714 10.364 46.3 14.62 46.3 19.12zm3.8-11.6 1.641 1.142C56.102 5.27 58.41 4 60.62 4V0c-4.03 0-7.402 2.411-10.162 6.378zM60.62 2v2c.093 0 .122.008.104.004a.8.8 0 0 1-.245-.108L61.54 2.2 62.6.504C61.933.087 61.194 0 60.62 0zm.92.2-.972 1.748a1.37 1.37 0 0 1-.566-.602.95.95 0 0 1-.103-.386h4c0-.802-.29-1.898-1.389-2.508zm.36.76h-2c0 .158-.027.437-.118.868l1.957.412 1.957.412c.123-.583.203-1.157.203-1.692zm-.16 1.28-1.976-.312c-.08.5-.138.822-.177.998l1.952.434 1.953.434c.067-.304.142-.728.223-1.242zm-.56 2.84-1.79-.894c-.152.303-.279.733-.374 1.065l1.923.549 1.923.55a10 10 0 0 1 .139-.447c.005-.012-.006.018-.033.071zm-.24.72-1.95-.45q-.015.067-.026.098l-.008.026.029-.056q.026-.05.098-.138l1.536 1.28 1.537 1.28c.429-.514.625-1.126.732-1.59zm-.32.76-1.563-1.25c.078-.096.142-.154.15-.162q.026-.023.004-.004c-.034.027-.1.077-.21.156-.219.155-.544.374-.988.66L59.1 9.64l1.087 1.68c.462-.3.844-.555 1.132-.76.142-.101.28-.203.4-.3.082-.065.287-.23.463-.45zM59.1 9.64l-1.087-1.68c-1.417.917-2.506 2.643-3.416 4.656l1.822.824 1.823.824c.85-1.88 1.547-2.688 1.944-2.945zm-2.68 3.8-1.819-.833c-.98 2.138-1.502 4.288-1.502 6.433h4c0-1.482.358-3.065 1.138-4.767zm-1.32 5.6h-2c0 1 .204 1.97.597 2.9l1.842-.78 1.842-.78a3.4 3.4 0 0 1-.282-1.34zm.44 2.12-1.843.78c.246.58.627 1.166 1.22 1.605a3.35 3.35 0 0 0 2.022.655v-4c.022 0 .076.003.15.026q.117.038.213.108c.125.094.127.16.08.047zm1.4 1.04v2c1.288 0 2.313-.645 3.043-1.505L58.46 21.4l-1.524-1.295c-.097.114-.144.134-.127.125a.3.3 0 0 1 .131-.03zm1.52-.8 1.523 1.295c.582-.684 1.092-1.494 1.545-2.4L59.74 19.4l-1.789-.894c-.347.693-.69 1.216-1.015 1.599zm1.28-2 1.8.871c.484-1.002.937-2.376 1.374-4.044l-1.935-.507-1.934-.507c-.416 1.586-.791 2.665-1.106 3.316zm1.24-3.68 1.934.507c.465-1.774.705-3.519.705-5.227h-4c0 1.332-.187 2.734-.574 4.213zm.64-4.72h2q0-1.153-.088-2.173L61.54 9l-1.992.173q.071.82.072 1.827zm-.08-2 1.992-.166q-.098-1.167-.433-2.314l-1.92.56-1.92.56a7.7 7.7 0 0 1 .287 1.526zm22.52 5.56 1.996.117-3.846-.878zm-1.68 4.08 1.79.89.032-.063.027-.066zm-3.76 7.56 1.764.941.014-.025.013-.025zm-.68 1.32 1.767.936.011-.02.01-.022zm-.72.92.971 1.748.07-.039.068-.045zm-3.28.12-.51 1.934.049.013.049.01zm-1.52-.64-1.068 1.691.032.02.034.02zm-.76-1.6h2v-.024zM71.62 23l-2-.028v.052zm.16-11.4 2 .028V11.6zm.12-5.12-1.998-.101v.024zm.44-3.56 1.638 1.147.025-.036.024-.037zm.68-.52.392 1.961.092-.018.09-.027zm4.04.36-.812 1.828zm1.24.88-1.857.743.047.117.061.111zm.2 1.4 1.996.12.004-.06v-.06zm-.44 7.36 1.993.161.002-.02.001-.022zm-.32 3.96-1.994-.161 3.841.927zM81.9 6.32l-1.835-.796-.007.015-.006.015zm1.32-2.84-1.707-1.043-.021.035-.02.037zm.76-.92L83.01.812l-.046.025-.043.027zm3.24-.04-.343 1.97.047.009.048.006zm1.44.48-1.2 1.6.073.055.079.048zm.6.72-1.961.392.004.021.004.02zm.08 1.12 2 .048V4.84zm-.16 6.68 1.998.083v-.018l.001-.017zm-.2 4.84-1.998-.083 3.84.861zm1.96-4.64 1.842.778.006-.014.006-.014zm3.04-7.52-1.818-.833-.02.041-.016.042zm.8-1.4-1.537-1.28-.005.007-.006.007zm4.08.12-.673 1.883.007.003.007.002zm1.48 2.52-1.838-.788-.006.014-.006.013zm-3.8 9.24 1.81.85.02-.044.02-.045zm-4.04 8.6 1.77.931.02-.04.02-.04zm-2 3.8 1.736.992.017-.03.017-.03zm-1.08 1.44 1.073 1.687.053-.033.05-.037zm-3.84.08-.392 1.961.007.002.007.001zm-1.84-2.04-1.99.199.005.049.007.049zm-.04-4.24 1.993.166.004-.052.002-.052zm.12-3.88-1.996-.125-.002.032-.001.031zm.2-3.2 1.996.125v-.008zm.04-.68-1.85-.761-1.68 4.08 1.85.761 1.85.761 1.68-4.08zm-1.68 4.08-1.791-.89-3.76 7.56 1.79.89 1.791.89 3.76-7.56zm-3.76 7.56-1.765-.941q-.335.627-.704 1.367l1.789.894 1.789.894q.35-.7.655-1.273zm-.68 1.32-1.768-.936a2 2 0 0 1-.167.273q-.02.024 0 .002a1 1 0 0 1 .105-.083l1.11 1.664 1.11 1.664c.655-.437 1.086-1.097 1.377-1.648zm-.72.92-.972-1.748-.02.01a.3.3 0 0 1 .05-.01l.222 1.988.22 1.988a3.9 3.9 0 0 0 1.471-.48zm-.72.24-.221-1.988a5 5 0 0 1-.58.028v4q.53.001 1.022-.052zm-.8.04v-2a6.6 6.6 0 0 1-1.348-.117l-.412 1.957-.412 1.957a10.6 10.6 0 0 0 2.172.203zm-1.76-.16.509-1.934a4.2 4.2 0 0 1-1.027-.437L72.42 27.92l-1.002 1.73a8.2 8.2 0 0 0 2.013.844zm-1.52-.64 1.068-1.691a.5.5 0 0 1 .169.193c.03.063.003.05.003-.102h-4c0 1.24.458 2.512 1.692 3.291zm-.76-1.6 2-.024-.04-3.32-2 .024-2 .024.04 3.32zM71.62 23l2 .028.16-11.4-2-.028-2-.028-.16 11.4zm.16-11.4h2c0-1.298.039-2.976.118-5.043L71.9 6.48l-1.999-.077a140 140 0 0 0-.121 5.197zm.12-5.12 1.997.101a35 35 0 0 1 .178-2.326 5 5 0 0 1 .082-.515c.01-.044.011-.04-.001-.007-.006.017-.055.158-.178.334L72.341 2.92l-1.639-1.147c-.29.414-.4.881-.443 1.072-.063.276-.112.59-.153.92a38 38 0 0 0-.203 2.614zm.44-3.56 1.687 1.074a.7.7 0 0 1-.162.165 1.1 1.1 0 0 1-.453.202L73.021 2.4 72.629.439c-.94.188-1.582.79-1.976 1.407zm.68-.52.575 1.916a1.7 1.7 0 0 1 .425-.036v-4c-.518 0-1.06.05-1.575.204zm1-.12v2c1.187 0 1.878.152 2.228.308l.812-1.828.812-1.828C76.783.448 75.446.28 74.021.28zm3.04.48-.812 1.828q.212.095.342.166c.089.048.14.081.162.097.026.018-.003.002-.055-.055a1.3 1.3 0 0 1-.254-.413L78.3 3.64l1.857-.743c-.269-.671-.779-1.087-1.09-1.308a7 7 0 0 0-1.195-.657zm1.24.88-1.749.971a1 1 0 0 1-.088-.204c-.005-.018 0-.006.007.046.015.107.03.295.03.587h4c0-.402-.019-.793-.07-1.153-.047-.327-.141-.785-.382-1.218zm.2 1.4-1.997-.12-.44 7.36 1.997.12 1.996.12.44-7.36zm-.44 7.36-1.994-.161-.32 3.96 1.994.161 1.993.161.32-3.96zm-.32 3.96 1.847.766 4.16-10.04L81.9 6.32l-1.848-.766-4.16 10.04zM81.9 6.32l1.835.796c.617-1.424 1.021-2.283 1.233-2.665L83.22 3.48l-1.749-.971c-.32.578-.797 1.612-1.406 3.015zm1.32-2.84 1.706 1.043a3 3 0 0 1 .246-.36q.034-.037.012-.015a1 1 0 0 1-.144.108L83.98 2.56 82.92.864c-.646.403-1.104 1.078-1.407 1.573zm.76-.92.971 1.748c.026-.014-.08.052-.291.052v-4c-.637 0-1.198.2-1.651.452zm.68-.2v2h.559v-4h-.559zm.56 0v2q.932.002 1.657.13l.343-1.97.343-1.97A13.6 13.6 0 0 0 85.22.36zm2 .16-.248 1.985c.223.027.369.064.455.092.088.03.083.04.033.003l1.2-1.6 1.2-1.6c-.72-.54-1.597-.765-2.392-.865zm1.44.48-1.048 1.703c.108.067-.213-.09-.313-.59l1.96-.393 1.962-.392c-.207-1.034-.928-1.671-1.513-2.031zm.6.72-1.953.434c-.002-.012.008.035.018.168q.014.188.015.518h4c0-.533-.025-1.09-.128-1.554zm.08 1.12-2-.048-.16 6.68 2 .048 2 .048.16-6.68zm-.16 6.68-1.998-.083-.2 4.84 1.998.083 1.998.083.2-4.84zm-.2 4.84 1.842.778 1.96-4.64-1.842-.778-1.843-.778-1.96 4.64zm1.96-4.64 1.854.75 3.04-7.52-1.854-.75-1.854-.75-3.04 7.52zm3.04-7.52 1.818.833c.272-.593.454-.874.53-.967L94.78 2.8l-1.548-1.266c-.404.493-.755 1.146-1.07 1.833zm.8-1.4 1.536 1.28a.75.75 0 0 1-.281.208c-.095.04-.14.032-.095.032v-4c-.96 0-1.968.325-2.697 1.2zm1.16-.48v2c.52 0 1.257.13 2.247.483l.673-1.883.672-1.883C98.285.59 97.074.32 95.942.32zm2.92.6-.659 1.888c.208.073.356.14.457.195s.136.087.13.081a.6.6 0 0 1-.12-.177.9.9 0 0 1-.088-.387h4c0-2.084-1.827-3.058-3.062-3.488zm1.72 1.6h-2a1 1 0 0 1 .006-.097q.004-.021-.001.002a2 2 0 0 1-.084.227l1.839.788 1.838.788c.203-.474.402-1.072.402-1.708zm-.24.92-1.85-.76-3.8 9.24 1.85.76 1.85.76 3.799-9.24zm-3.8 9.24-1.81-.85-4.04 8.6 1.81.85 1.81.85 4.04-8.6zm-4.04 8.6-1.77-.931-2 3.8 1.77.931 1.77.932 2-3.8zm-2 3.8-1.737-.992c-.188.33-.34.56-.453.712-.128.17-.152.165-.067.102l1.177 1.618 1.176 1.617c.675-.49 1.215-1.32 1.64-2.065zm-1.08 1.44-1.074-1.687a1 1 0 0 1 .18-.09c.011-.004-.01.003-.075.014a4.6 4.6 0 0 1-.711.043v4c.478 0 .943-.026 1.369-.097.398-.067.912-.195 1.385-.496zm-1.68.28v-2q-.94-.001-1.782-.164L85.58 28.6l-.378 1.964q1.238.237 2.538.236zm-2.16-.2.392-1.961a2 2 0 0 1-.22-.056l-.076-.03c-.005-.003.09.047.188.189L84.22 27.88l-1.645 1.138c.672.97 1.735 1.368 2.613 1.543zm-1.36-.72 1.644-1.138c-.024-.036-.1-.166-.146-.479l-1.978.297-1.978.297c.113.754.358 1.503.813 2.161zm-.48-1.32 1.99-.199c-.044-.437-.07-1.082-.07-1.961h-4c0 .934.027 1.73.09 2.359zm-.08-2.16h2v-1.08h-4v1.08zm0-1.08h2q0-.443.033-.834L83.7 22.32l-1.993-.166q-.047.57-.047 1.166zm.04-1 1.999.062.12-3.88-2-.062-1.998-.062-.12 3.88zm.12-3.88 1.996.125.2-3.2-1.996-.125-1.996-.125-.2 3.2zm.2-3.2 1.996.117.04-.68-1.996-.117-1.997-.117-.04.68zm29.814 4.12 1.822.824.251-.555-.101-.601zm-.68-4.04-1.973.331.001.001zm-1.8-10.72-1.99.199.006.066.011.066zm-.08-.68h-2v.142l.02.14zm.04-.52 1.973.329.002-.013.002-.012zm.48-.8 1.147 1.638.015-.01.014-.01zm3.56-.08.329-1.973zm1.88.84-1.613 1.183.025.034.026.032zm.68 3.12-1.994.158zm.2 4.64 1.997.1.003-.05v-.05zm-.04.8-1.998-.1 3.833.895zm1.68-3.88-1.83-.807-.005.012zm1.32-2.88 1.807.856.005-.009.004-.009zm1.28-2.16 1.462 1.365.022-.024.021-.024zm4.64 0-.895 1.789.023.011.023.01zm1.08 2.28-1.789-.894-.02.04-.019.042zm-.24.56 1.788.896.038-.075.031-.078zm-10.36 20.68-1.788-.896-.001.002zm-.92 1.64 1.648 1.133.016-.023.015-.023zm-4.52.08-.633 1.897.014.005zm-.92-3.32 1.715 1.029.037-.062.033-.065zm1.96-3.88 1.785.902.019-.038.018-.04zm.76-1.68 1.972-.332-.68-4.04-1.972.332-1.972.332.68 4.04zm-.68-4.04 1.972-.331-1.8-10.72-1.972.331-1.973.331 1.8 10.72zm-1.8-10.72 1.99-.199q-.042-.427-.09-.764l-1.98.283-1.98.283q.032.224.07.596zm-.08-.68h2q.002-.138.013-.191l-1.973-.329-1.973-.329a5 5 0 0 0-.067.849zm.04-.52 1.977.304a.8.8 0 0 1-.102.265.9.9 0 0 1-.248.27L111.795 2.6 110.648.962a3.14 3.14 0 0 0-1.31 2.134zm.48-.8 1.176 1.617a.34.34 0 0 1-.176.063v-4c-.783 0-1.531.233-2.177.703zm1-.32v2c.609 0 1.349.066 2.231.213l.329-1.973.329-1.973c-1.038-.173-2.005-.267-2.889-.267zm2.56.24-.329 1.973c.376.062.595.135.703.183.112.05.016.034-.107-.133l1.613-1.183 1.613-1.183c-.789-1.075-2.122-1.456-3.164-1.63zm1.88.84-1.562 1.25c-.098-.123-.113-.193-.085-.12.022.06.06.179.103.376.086.396.167.977.23 1.772l1.994-.158 1.994-.158c-.071-.885-.17-1.664-.31-2.308-.123-.564-.335-1.319-.802-1.903zm.68 3.12-1.994.158q.195 2.455.194 4.482h4q-.001-2.213-.206-4.798zm.2 4.64-1.998-.1-.04.8 1.998.1 1.997.1.04-.8zm-.04.8 1.835.795 1.68-3.88-1.835-.795-1.835-.795-1.68 3.88zm1.68-3.88 1.83.807q.588-1.332 1.297-2.83l-1.807-.857-1.808-.856a122 122 0 0 0-1.342 2.929zm1.32-2.88 1.816.838c.466-1.01.784-1.481.926-1.633L122.355 3l-1.462-1.365c-.605.648-1.14 1.617-1.634 2.687zm1.28-2.16 1.505 1.317q.018-.018.004-.006a.3.3 0 0 1-.105.047q-.022.003-.004.002v-4a3.78 3.78 0 0 0-2.905 1.323zm1.4-.64v2c1.105 0 1.853.183 2.345.429L126.995 3l.894-1.789c-1.214-.607-2.626-.851-4.134-.851zm3.24.64-.849 1.81c.13.062.215.113.264.148s.053.044.032.02a.7.7 0 0 1-.107-.186.9.9 0 0 1-.06-.312h4c0-1.771-1.343-2.78-2.431-3.29zm1.28 1.48h-2q0-.054.01-.085c.004-.02.008-.023.001-.01l1.789.895 1.789.894a3.8 3.8 0 0 0 .411-1.694zm-.2.8-1.828-.812c-.11.247-.202.46-.269.63l1.857.742 1.857.743c.039-.099.107-.258.21-.49zm-.24.56-1.788-.896-10.36 20.68 1.788.896 1.788.896 10.36-20.68zm-10.36 20.68-1.789-.894a16 16 0 0 1-.81 1.447l1.679 1.087 1.679 1.087a19 19 0 0 0 1.03-1.833zm-.92 1.64-1.648-1.133a.8.8 0 0 1 .178-.187.5.5 0 0 1 .118-.069c.012-.005-.005.003-.062.012a2 2 0 0 1-.266.017v4c1.082 0 2.48-.274 3.328-1.507zm-1.68.64v-2c-.448 0-1.167-.119-2.221-.462l-.619 1.902-.619 1.902c1.239.403 2.413.658 3.459.658zm-2.84-.56.632-1.897a4 4 0 0 1-.484-.192c-.114-.056-.154-.089-.15-.085s.084.068.166.212c.09.158.156.367.156.602h-4c0 1.064.588 1.83 1.161 2.294.548.444 1.225.743 1.886.963zm-1.68-1.36h2c0 .018-.007-.047.085-.219l-1.765-.941-1.765-.941c-.335.628-.555 1.336-.555 2.101zm.32-1.16 1.765.941c.216-.406.34-.629.39-.712l-1.715-1.029-1.715-1.029c-.11.184-.28.494-.49.888zm.44-.8 1.785.902 1.96-3.88-1.785-.902-1.785-.902-1.96 3.88zm1.96-3.88 1.822.824.76-1.68-1.822-.824-1.822-.824-.76 1.68zM139.82 5.36l-1.952-.434-1.302 5.857 4.556-3.904zm.56-.48 1.302 1.519.006-.006.006-.005zm1.24-1.08 1.314 1.508.006-.005.006-.005zm1.44-1.2 1.147 1.638.015-.01.015-.01zm3.2 2.52-1.951.44zm0 10.6-1.949-.446-.003.01-.002.011zm-1.88 5.8 1.84.785.004-.009zm-4.04 5.4-1.312-1.51-.005.006-.006.004zm-11.28-.08-1.425 1.403.006.006.005.005zm1.32-19.32-1.641-1.142-.006.008zm9.44-5.32-1.06 1.696.044.027.045.025zm.2 2.04-1.957-.412-.01.05-.008.05zm-.56 2.84 1.92-.56-1.428-4.896-2.28 4.562zm-.24.72-1.923-.55-.014.05-.011.05zm-.32.76-1.536-1.28-.013.015-.012.016zm-4.2 4.88 1.819.833.004-.01zm-.88 7.72 1.842-.78zm2.92.24-1.523-1.295zm1.28-2 1.789.894.006-.011.006-.012zm1.8-10.4-1.993.166.001.007zm0-3.64 1.302 1.519.56-.48-1.302-1.519-1.301-1.519-.56.48zm.56-.48 1.314 1.508 1.24-1.08L141.62 3.8l-1.313-1.508-1.24 1.08zm1.24-1.08 1.326 1.498c.704-.623 1.102-.948 1.261-1.06L143.061 2.6 141.914.962c-.374.261-.935.736-1.618 1.34zm1.44-1.2 1.177 1.617a.4.4 0 0 1-.108.055c-.036.01-.05.008-.029.008v-4c-.777 0-1.546.215-2.216.703zm1.04-.32v2a.55.55 0 0 1-.253-.067c-.076-.041-.082-.07-.038-.012.11.145.315.536.5 1.359l1.951-.44 1.951-.44c-.241-1.07-.609-2.1-1.219-2.9-.664-.874-1.647-1.5-2.892-1.5zm2.16 2.84-1.951.44c.402 1.783.591 3.353.591 4.72h4c0-1.726-.237-3.597-.689-5.6zm.64 5.16h-2c0 1.598-.193 3.261-.589 4.994l1.949.446 1.95.446c.457-2 .69-3.963.69-5.886zm-.64 5.44-1.954-.425c-.37 1.702-.956 3.517-1.769 5.449l1.843.776 1.844.776c.893-2.122 1.561-4.173 1.991-6.151zm-1.88 5.8-1.839-.785c-.721 1.69-1.873 3.25-3.513 4.676l1.312 1.509 1.313 1.51c2.04-1.775 3.581-3.815 4.567-6.125zm-4.04 5.4-1.323-1.5c-1.474 1.301-3.052 1.9-4.797 1.9v4c2.789 0 5.291-1.001 7.444-2.9zm-6.12 2.4v-2c-1.107 0-2.347-.496-3.745-1.894l-1.415 1.414-1.414 1.414c1.908 1.908 4.108 3.066 6.574 3.066zm-5.16-2.48 1.426-1.403c-1.143-1.161-1.906-3.13-1.906-6.317h-4c0 3.746.891 6.924 3.055 9.123zm-2.48-7.72h2c0-3.607 1.12-7.084 3.448-10.466L130.38 7.52l-1.647-1.134c-2.738 3.978-4.153 8.235-4.153 12.734zm3.8-11.6 1.642 1.142C134.384 5.27 136.692 4 138.901 4V0c-4.03 0-7.402 2.411-10.161 6.378zM138.9 2v2c.094 0 .124.008.106.004a.8.8 0 0 1-.246-.108l1.06-1.696 1.06-1.696C140.213.087 139.474 0 138.9 0zm.92.2-.971 1.748a1.37 1.37 0 0 1-.566-.602.95.95 0 0 1-.103-.386h4c0-.802-.29-1.898-1.388-2.508zm.36.76h-2c0 .158-.026.437-.117.868l1.957.412 1.958.412c.122-.583.202-1.157.202-1.692zm-.16 1.28-1.975-.312c-.079.5-.138.822-.177.998l1.952.434 1.953.434c.067-.304.142-.728.223-1.242zm-.56 2.84-1.788-.894c-.152.303-.28.733-.375 1.065l1.923.549 1.923.55a10 10 0 0 1 .139-.447c.005-.012-.006.018-.033.071zm-.24.72-1.948-.45-.026.098-.009.026q.002-.007.029-.056a1 1 0 0 1 .098-.138l1.536 1.28 1.537 1.28c.429-.514.625-1.126.732-1.59zm-.32.76-1.561-1.25c.077-.096.141-.154.149-.162q.027-.023.004-.004c-.033.027-.1.077-.21.156a29 29 0 0 1-.988.66l1.086 1.68 1.087 1.68c.463-.3.844-.555 1.132-.76.143-.101.28-.203.4-.3.082-.065.287-.23.463-.45zm-1.52 1.08-1.086-1.68c-1.417.917-2.506 2.643-3.416 4.656l1.822.824 1.823.824c.85-1.88 1.547-2.688 1.944-2.945zm-2.68 3.8-1.818-.833c-.98 2.138-1.502 4.288-1.502 6.433h4c0-1.482.359-3.065 1.139-4.767zm-1.32 5.6h-2c0 1 .206 1.97.598 2.9l1.842-.78 1.842-.78a3.4 3.4 0 0 1-.282-1.34zm.44 2.12-1.842.78c.246.58.628 1.166 1.22 1.605a3.35 3.35 0 0 0 2.022.655v-4c.022 0 .077.003.151.026a.7.7 0 0 1 .212.108c.126.094.127.16.079.047zm1.4 1.04v2c1.29 0 2.314-.645 3.044-1.505L136.74 21.4l-1.523-1.295c-.098.114-.145.134-.128.125a.3.3 0 0 1 .131-.03zm1.52-.8 1.524 1.295c.582-.684 1.092-1.494 1.545-2.4l-1.789-.895-1.788-.894c-.347.693-.69 1.216-1.015 1.599zm1.28-2 1.801.871c.485-1.002.937-2.376 1.374-4.044l-1.935-.507-1.934-.507c-.416 1.586-.791 2.665-1.106 3.316zm1.24-3.68 1.935.507c.466-1.774.705-3.519.705-5.227h-4c0 1.332-.186 2.734-.574 4.213zm.64-4.72h2q0-1.153-.087-2.173L139.821 9l-1.992.173q.071.82.072 1.827zm-.08-2 1.993-.166q-.097-1.167-.433-2.314l-1.92.56-1.92.56q.226.773.287 1.526zm28.641-.28 1.938.495.001-.005zm-2.84 10.72 1.916.575zm-1.56 4.32 1.843.776.005-.011zm-3.08 3.72-1.124-1.654-.007.005-.007.005zm-10.44-.84-1.528 1.29.012.015.013.014zm-1.72-7.88-1.94-.485-.013.052-.011.053zm.56-2.36-1.945-.465-.006.026-.006.027zm2.84-11.88 1.945.465.002-.008.002-.007zm.8-1.88 1.176 1.617.012-.008.012-.009zm4.64 0-.541 1.925zm1.16 1.96 1.93.526zm-.2.84 1.944.468.01-.038.007-.038zm-2.92 12.12 1.94.485.002-.008.002-.009zm-.32 1.32 1.94.485.004-.013.003-.014zm-.16 1.28 1.986.234.014-.117v-.117zm.36 1.2-1.527 1.292zm2.24.12 1.28 1.536.006-.004.006-.005zm.8-1.12-1.81-.852-.021.045-.018.046zm.52-1.36-1.897-.633-.012.034-.01.035zm.56-2-1.933-.514-.004.015-.003.014zm3.2-12.04 1.933.514.006-.022.005-.023zm.72-1.72 1.573 1.236.02-.026.02-.027zm3.48-.48-.297 1.978.054.008.053.005zm1.56.44-.894 1.789.019.01.019.008zm.76 1.32h-2c0-.158.024-.213-.024.035-.034.176-.088.429-.166.77q-.231 1.014-.709 2.905l1.939.49 1.939.49q.483-1.91.731-2.994c.082-.36.148-.665.194-.906.032-.169.096-.499.096-.79zm-.96 4.2-1.938-.495a2271 2271 0 0 1-1.599 6.235l1.937.5 1.937.5q.64-2.484 1.601-6.245zm-1.6 6.24-1.937-.5a118 118 0 0 1-1.219 4.405l1.916.575 1.916.575q.613-2.045 1.261-4.555zm-1.24 4.48-1.916-.575a44 44 0 0 1-1.492 4.13l1.848.765 1.848.765a48 48 0 0 0 1.628-4.51zm-1.56 4.32-1.843-.776c-.485 1.15-1.255 2.09-2.361 2.842l1.124 1.654 1.124 1.654c1.721-1.168 3.004-2.709 3.799-4.598zm-3.08 3.72-1.138-1.644c-1.072.741-2.171 1.084-3.342 1.084v4c2.03 0 3.916-.617 5.618-1.796zm-4.48 1.44v-2c-2.251 0-3.611-.635-4.456-1.599l-1.504 1.319-1.503 1.319c1.821 2.076 4.434 2.961 7.463 2.961zm-5.96-2.28 1.528-1.29c-.993-1.176-1.488-2.528-1.488-4.15h-4c0 2.538.812 4.813 2.432 6.73zm-1.96-5.44h2q0-.998.204-2.06l-1.964-.38-1.964-.38a15 15 0 0 0-.276 2.82zm.24-2.44 1.94.485c.268-1.07.462-1.887.577-2.433l-1.957-.412-1.957-.412a74 74 0 0 1-.543 2.287zm.56-2.36 1.945.465 2.84-11.88-1.945-.465-1.945-.465-2.84 11.88zm2.84-11.88 1.949.45c.106-.462.202-.754.271-.917.034-.08.047-.093.029-.066-.014.02-.096.142-.273.27l-1.176-1.617-1.176-1.617c-.599.435-.914 1.064-1.084 1.464a9.7 9.7 0 0 0-.489 1.583zm.8-1.88 1.2 1.6a1 1 0 0 1-.231.132c-.004.002.037-.012.14-.03.21-.034.55-.062 1.051-.062v-4a10.6 10.6 0 0 0-1.709.117c-.456.076-1.101.23-1.651.643zm2.16-.36v2c.598 0 1.243.09 1.939.285l.541-1.925.542-1.925a11 11 0 0 0-3.022-.435zm2.48.36-.541 1.925c.263.074.244.118.133.014a1.06 1.06 0 0 1-.312-.74h4c0-.859-.356-1.619-.952-2.178-.537-.504-1.197-.78-1.786-.946zm1.28 1.2h-2c0-.016.001-.005-.005.038q-.01.064-.044.196l1.929.526 1.93.526c.108-.398.19-.837.19-1.286zm-.12.76-1.929-.526a14 14 0 0 0-.232.974l1.961.392 1.961.392q.065-.325.169-.706zm-.2.84-1.944-.468-2.92 12.12 1.944.468 1.944.468 2.92-12.12zm-2.92 12.12-1.94-.485q-.163.654-.327 1.347l1.947.458 1.947.458q.157-.668.313-1.293zm-.32 1.32-1.94-.485q-.219.871-.22 1.765h4q-.001-.386.1-.795zm-.16 1.28-1.986-.234a3.5 3.5 0 0 0 .819 2.726l1.527-1.292 1.527-1.292a.5.5 0 0 1 .079.157.4.4 0 0 1 .02.169zm.36 1.2-1.527 1.292a3.4 3.4 0 0 0 2.647 1.228v-4a.6.6 0 0 1 .222.056.6.6 0 0 1 .185.132zm1.12.52v2c.882 0 1.712-.29 2.4-.864l-1.28-1.536-1.28-1.536a.3.3 0 0 1 .087-.047c.045-.017.075-.017.073-.017zm1.12-.4 1.292 1.527a4.86 4.86 0 0 0 1.357-1.886l-1.849-.761-1.849-.761a.9.9 0 0 1-.243.354zm.8-1.12 1.81.852q.382-.811.629-1.648L159.142 19l-1.919-.564q-.152.523-.411 1.072zm.52-1.36 1.897.633a30 30 0 0 0 .603-2.148l-1.94-.485-1.94-.485a27 27 0 0 1-.517 1.852zm.56-2 1.933.514 3.2-12.04-1.933-.514-1.933-.514-3.2 12.04zm3.2-12.04 1.944.47c.159-.659.314-.91.349-.954l-1.573-1.236-1.573-1.236c-.551.703-.877 1.598-1.091 2.487zm.72-1.72 1.613 1.183a.8.8 0 0 1-.183.182.5.5 0 0 1-.113.063c-.01.004.008-.004.064-.012q.083-.015.259-.016v-4c-1.043 0-2.398.252-3.253 1.417zm1.64-.6v2c.621 0 1.131.036 1.543.098l.297-1.978.297-1.978a14.5 14.5 0 0 0-2.137-.142zm1.84.12-.19 1.991c.327.031.607.113.856.238l.894-1.789.894-1.789a6.4 6.4 0 0 0-2.264-.642zm1.56.44-.856 1.807a.6.6 0 0 1-.145-.099.8.8 0 0 1-.162-.2c-.088-.153-.077-.248-.077-.188h4c0-.58-.115-1.215-.457-1.808a3.26 3.26 0 0 0-1.447-1.32zm14.534 16.52-.921-1.775-1.871.97 1.067 1.818zm4.56 7.76 1.789-.894-.031-.06-.034-.06zm-1.6 3-.996-1.734-.022.012-.022.014zm-4.28-.2-1.799.875.031.063.035.06zm-.88-1.76-1.759.952.011.02.011.02zm-3.92-7.24 1.759-.952-2.451-4.526-1.249 4.993zm-1.56 6.24 1.934.509.003-.012.003-.012zm-.44 1.16-1.715-1.029-.017.029-.017.029zm-4.36-.04-.518 1.932.022.006.022.005zm-.52-6.12 1.928.53.002-.005zm1.8-6.44 1.919.563.003-.01.003-.011zm1.88-6.68 1.925.542 1.125-3.996-3.826 1.61zm-1.36.48.515 1.932zm-1.8-.12-1.789.894.07.14.091.128zm-.16-.8-1.987-.23-.013.115v.115zm.64-2.76 1.914.579.004-.012zm.88-2.04 1.228 1.579.051-.04.05-.044zm.76-.44-.575-1.916zm1.4-.36.467 1.945.036-.009.036-.01zm2.96-.6L176.88.785l-.006.001zm10.12 1.8-1.252 1.56.007.005.007.006zm.84 11.28-1.559-1.253zm-12.52-6.8-.522-1.93.193 3.903zm.48.08.405-1.959-.038-.007-.038-.007zm1.16.24-.405 1.959.038.007.038.007zm1.84.56-.981 1.743.043.024.043.022zm.24 3.2 1.903.614zm-.52 1.6 1.872.702.013-.034.012-.036zm-.12.32-1.873-.702-1.013 2.702h2.886zm3.16-1.12 1.207 1.595.006-.005zm.4-4.8-1.082 1.682.022.014.022.014zm.92 10.6-1.725 1.013 4.56 7.76 1.725-1.013 1.724-1.013-4.56-7.76zm4.56 7.76-1.789.894c.048.096.067.153.073.175s-.004-.004-.004-.069h4c0-.707-.221-1.353-.491-1.894zm.28 1h-2c0-.404.205-.551.073-.41-.124.132-.407.364-.949.676l.996 1.734.996 1.734c.711-.408 1.368-.87 1.871-1.404.494-.525 1.013-1.313 1.013-2.33zm-1.88 2-1.04-1.708c-.552.336-.99.556-1.324.688-.35.137-.49.14-.476.14v4c1.264 0 2.625-.648 3.88-1.412zm-2.84 1.12v-2c.455 0 .682.224.651.196-.007-.007-.047-.046-.114-.136a4 4 0 0 1-.244-.378l-1.733.998-1.733.998c.305.53.671 1.053 1.121 1.466.45.412 1.144.856 2.052.856zm-1.44-1.32 1.798-.875c-.464-.955-.794-1.618-.942-1.877l-1.736.992-1.737.992.006.01.016.03.053.102q.067.127.173.34.213.425.57 1.16zm-.88-1.76 1.759-.952-3.92-7.24-1.759.952-1.759.952 3.92 7.24zm-3.92-7.24-1.941-.485-1.559 6.24 1.94.485 1.94.485 1.56-6.24zm-1.56 6.24-1.934-.509a5 5 0 0 1-.146.47 2 2 0 0 1-.053.127l-.016.032-.006.011 1.715 1.029 1.715 1.029c.301-.502.506-1.097.659-1.68zm-.44 1.16-1.749-.971c.151-.271.347-.443.496-.542.142-.093.253-.128.285-.138.051-.014-.014.011-.272.011v4c.435 0 .924-.035 1.387-.17.435-.126 1.165-.434 1.601-1.219zm-1.24.36v-2c-.807 0-1.687-.109-2.646-.343l-.474 1.943-.474 1.943c1.227.3 2.427.457 3.594.457zm-3.12-.4.518-1.932a2.4 2.4 0 0 1-.383-.132c-.075-.036-.079-.048-.046-.019a.8.8 0 0 1 .179.247c.066.14.092.28.092.396h-4c0 .965.429 1.782 1.09 2.363.597.524 1.337.822 2.032 1.009zm-1.64-1.44h2c0 .11-.013.107.034-.143.039-.202.101-.486.191-.861.179-.749.452-1.795.823-3.147l-1.928-.529-1.929-.53a109 109 0 0 0-.856 3.275c-.097.404-.175.755-.23 1.043-.046.24-.105.582-.105.892zm1.12-4.68 1.93.525a355 355 0 0 1 1.789-6.403l-1.919-.562-1.919-.562a361 361 0 0 0-1.811 6.477zm1.8-6.44 1.925.542 1.88-6.68-1.925-.542-1.925-.542-1.88 6.68zm1.88-6.68-.776-1.843a9 9 0 0 1-1.1.39l.516 1.933.515 1.932a13 13 0 0 0 1.621-.569zm-1.36.48L172 7.948a2.5 2.5 0 0 1-.644.092v4a6.5 6.5 0 0 0 1.675-.227zm-1.16.16v-2c.06 0 .219.009.421.098.219.095.42.255.566.46l-1.627 1.162-1.628 1.162c.612.857 1.528 1.118 2.268 1.118zm-.64-.28 1.789-.894a.6.6 0 0 1 .052.142c.003.016-.001.003-.001-.048h-4c0 .53.086 1.125.371 1.694zm-.16-.8 1.987.23c.06-.521.234-1.31.567-2.411l-1.914-.579-1.915-.579c-.36 1.192-.612 2.243-.712 3.11zm.64-2.76 1.918.567c.163-.553.297-.93.398-1.165.051-.117.078-.163.077-.161a1 1 0 0 1-.057.078c-.035.043-.11.127-.228.22l-1.228-1.579-1.228-1.579c-.334.26-.546.57-.666.763a5 5 0 0 0-.343.674c-.192.445-.378.994-.561 1.615zm.88-2.04 1.329 1.495a.2.2 0 0 1 .043-.034l-.011.005-.027.01-.574-1.916-.575-1.916a4 4 0 0 0-1.514.861zm.76-.44.574 1.916c.208-.062.625-.171 1.293-.331l-.467-1.945-.467-1.945a30 30 0 0 0-1.508.39zm1.4-.36.539 1.926c.558-.156 1.456-.342 2.743-.552l-.322-1.974-.322-1.974c-1.327.217-2.402.43-3.177.648zm2.96-.6.316 1.975c1.246-.2 2.38-.295 3.404-.295v-4c-1.269 0-2.616.118-4.036.345zm3.72-.32v2c2.104 0 3.782.583 5.148 1.68l1.252-1.56L188.568 3c-2.155-1.73-4.744-2.56-7.652-2.56zm6.4 2.12-1.238 1.571c1.235.973 1.878 2.277 1.878 4.149h4c0-2.981-1.117-5.49-3.402-7.291zm2.64 5.72h-2c0 1.832-.488 3.223-1.359 4.307l1.559 1.253 1.559 1.253c1.528-1.903 2.241-4.218 2.241-6.813zm-1.8 5.56-1.559-1.253c-.99 1.232-2.405 2.363-4.322 3.358l.921 1.775.921 1.775c2.296-1.191 4.188-2.647 5.598-4.402zm-12.52-6.8-.329 1.973.48.08.329-1.973.329-1.973-.48-.08zm.48.08-.405 1.959 1.16.24.405-1.959.405-1.959-1.16-.24zm1.16.24-.329 1.973c.701.117 1.053.254 1.188.33l.981-1.743.98-1.743c-.718-.404-1.592-.64-2.491-.79zm1.84.56-.895 1.789a.93.93 0 0 1-.39-.388c-.087-.162-.075-.26-.075-.201h4c0-1.135-.472-2.352-1.746-2.989zm.64 1.2h-2c0 .201-.062.638-.304 1.386l1.904.614 1.903.614c.292-.905.497-1.802.497-2.614zm-.4 2-1.904-.614c-.267.83-.437 1.353-.514 1.582l1.898.632 1.897.632c.084-.25.26-.794.526-1.618zm-.52 1.6-1.873-.702-.12.32 1.873.702 1.872.702.12-.32zm-.12.32v2c1.601 0 3.071-.545 4.367-1.525l-1.207-1.595-1.207-1.595c-.678.513-1.315.715-1.953.715zm3.16-1.12 1.213 1.59c1.416-1.08 2.307-2.565 2.307-4.39h-4c0 .361-.123.744-.734 1.21zm1.52-2.8h2c0-1.572-.733-2.89-2.082-3.71l-1.038 1.71-1.038 1.71a.6.6 0 0 1 .114.084c.015.015.018.023.019.023l.011.032a.7.7 0 0 1 .014.151zm-1.12-2 1.081-1.682c-1.086-.699-2.305-1.038-3.601-1.038v4c.57 0 1.031.14 1.438.402zm-2.52-.72v-2c-.927 0-1.75.038-2.369.154l.369 1.966.368 1.966c.234-.044.746-.086 1.632-.086zm-2 .12-.369-1.966c-.511.096-1.285.288-2.273.555l.522 1.931.522 1.93c.985-.266 1.624-.42 1.966-.484zM29.054 52.72l1.982-.272-3.972.073zm-.08.8-1.99-.199v.004zm-.64 4-1.951-.438-.005.019-.003.02zm-1.16 4.96-1.939-.491-.003.013-.003.013zm-.88 3.68 1.937.5.004-.017.004-.018zm-.64 1.96-1.828-.812-.019.043-.017.044zm-4.68.24.617-1.902zm-1.08-3.32 1.943.474.003-.01zm.64-2.52 1.923.55.006-.022.006-.022zm3.44-13.16-1.915-.578-.01.036-.01.036zm1.52-5.04 1.915.578.008-.026.007-.026zm.6-1.4 1.644 1.138zm4.24.16-.707 1.87.025.01.025.009zm2.68 2.08-1.728 1.008.007.01.006.011zm1.48 4.6-1.961.392v.005zm.64 5.76h-2l3.984.256zm.72-4.64-1.961-.392-.003.014-.002.014zm.92-4.16-1.936-.503-.003.014-.004.013zm.68-2.72-1.927-.535-.014.05-.011.051zm.44-1.04 1.6 1.2.033-.044.031-.047zm.52-.44-.485-1.94-.032.008-.032.009zm3.52.48.823-1.823zm1.64 2.92 1.947.458.003-.012.002-.012zm-.28 1.28 1.94.485.012-.046.01-.047zm-3.04 12.16 1.917.571.013-.043.01-.043zm-1.12 3.76 1.904.612.007-.02.006-.021zm-.64 2.12 1.92.56.003-.01.003-.01zm-.24 1.72-1.99.199.012.119.026.116zm.16.68h2v-.246l-.06-.24zm-.64.92.485 1.94.056-.014.056-.017zm-5.04-.48-1.038 1.71.023.013.023.014zm-1.36-1.36-1.897.633.005.016.006.017zm-.4-1.68 1.973-.329v-.003zm-1.24-7.36-1.981.272.004.03.005.03zm-.68-4.96-1.99-.199-.08.8 1.99.199 1.99.199.08-.8zm-.08.8-1.99-.195a31 31 0 0 1-.601 3.757l1.951.438 1.951.438q.468-2.082.68-4.243zm-.64 4-1.96-.4a111 111 0 0 1-1.139 4.869l1.94.491 1.938.491q.766-3.026 1.18-5.051zm-1.16 4.96-1.945-.465-.88 3.68 1.945.465 1.945.465.88-3.68zm-.88 3.68-1.936-.5c-.201.777-.382 1.311-.532 1.648l1.828.812 1.828.812c.277-.623.523-1.396.749-2.272zm-.64 1.96-1.864-.725c.078-.201.2-.36.326-.468a.8.8 0 0 1 .216-.14c.01-.004-.028.012-.137.027a3.4 3.4 0 0 1-.46.026v4c.66 0 1.363-.068 2.001-.307.67-.251 1.42-.759 1.782-1.688zm-1.92.72v-2c-.604 0-1.314-.114-2.143-.382l-.617 1.902-.617 1.902c1.145.372 2.275.578 3.377.578zm-2.76-.48.617-1.902a2 2 0 0 1-.301-.123c-.053-.03-.046-.034-.012 0a.82.82 0 0 1 .216.544h-4c0 .892.354 1.683.956 2.285.552.552 1.248.885 1.907 1.098zm-1.48-1.48h2a2 2 0 0 1-.01.188l.004-.026c.01-.059.03-.155.06-.297q.092-.421.29-1.231l-1.944-.474-1.943-.474c-.135.552-.24.998-.311 1.33-.036.163-.067.314-.09.442-.012.071-.056.304-.056.542zm.4-1.84 1.946.463c.265-1.113.47-1.918.617-2.434l-1.923-.549-1.923-.55c-.173.605-.394 1.48-.663 2.607zm.64-2.52 1.935.506 3.44-13.16-1.935-.506-1.935-.506-3.44 13.16zm3.44-13.16 1.915.578 1.52-5.04-1.915-.578-1.915-.578-1.52 5.04zm1.52-5.04 1.93.526c.124-.456.247-.69.314-.788l-1.644-1.138-1.644-1.138c-.413.595-.69 1.295-.886 2.012zm.6-1.4 1.644 1.138a.84.84 0 0 1-.604.342v-4c-1.051 0-2.039.45-2.684 1.382zm1.04-.52v2c.62 0 1.44.153 2.493.55l.707-1.87.707-1.87c-1.347-.51-2.66-.81-3.907-.81zm3.2.68-.657 1.889c.856.298 1.33.718 1.61 1.199l1.727-1.008 1.728-1.008c-.84-1.44-2.154-2.406-3.75-2.961zm2.68 2.08L31.3 46.189c.375.625.816 1.876 1.234 3.963l1.961-.392 1.961-.392c-.436-2.18-.981-3.996-1.726-5.237zm1.48 4.6-1.96.397c.406 2.006.6 3.79.6 5.363h4c0-1.894-.233-3.95-.68-6.157zm.64 5.76 1.984.256q.313-2.432.703-4.532l-1.967-.364-1.966-.364a88 88 0 0 0-.737 4.748zm.72-4.64 1.961.392q.434-2.162.902-4.076l-1.943-.476-1.943-.476q-.49 2.006-.938 4.244zm.92-4.16 1.936.503c.345-1.33.58-2.27.696-2.79L37.454 44l-1.952-.434c-.098.44-.316 1.313-.664 2.65zm.68-2.72 1.927.535c.05-.181.094-.302.125-.376.034-.08.036-.063-.012.001l-1.6-1.2-1.6-1.2c-.388.518-.615 1.156-.767 1.705zm.44-1.04 1.664 1.11-.006.008-.02.025a1 1 0 0 1-.096.094c-.094.079-.25.183-.472.246l-.55-1.923-.55-1.923c-.819.234-1.335.805-1.634 1.254zm.52-.44.485 1.94q.089-.021.155-.02v-4q-.574.001-1.125.14zm.64-.08v2c.867 0 1.536.148 2.057.383L41.934 43l.823-1.823c-1.133-.511-2.383-.737-3.703-.737zm2.88.56-.823 1.823c.388.175.668.314.856.417.093.052.147.086.17.102.034.023-.016-.007-.097-.088l1.414-1.414 1.414-1.414c-.307-.308-.697-.537-.967-.687a16 16 0 0 0-1.144-.562zm1.52.84-1.414 1.414a1.14 1.14 0 0 1-.282-.448c-.031-.098-.024-.138-.024-.086h4c0-.661-.15-1.578-.866-2.294zm.28.88h-2c0 .118-.022.361-.112.766l1.952.434 1.952.434c.124-.555.208-1.112.208-1.634zm-.16 1.2-1.947-.458q-.166.708-.294 1.346l1.961.392 1.961.392q.113-.563.266-1.214zm-.28 1.28-1.94-.485-3.04 12.16 1.94.485 1.94.485 3.04-12.16zm-3.04 12.16-1.917-.571-1.12 3.76 1.917.571 1.917.571 1.12-3.76zm-1.12 3.76-1.904-.612a61 61 0 0 0-.662 2.193l1.926.539 1.926.54q.268-.96.618-2.048zm-.64 2.12-1.92-.56c-.096.33-.174.611-.23.835-.028.11-.055.225-.076.333-.013.067-.054.276-.054.512h4c0 .114-.01.196-.013.214l-.006.038a20 20 0 0 1 .22-.812zm-.28 1.12h-2c0 .237.022.518.05.799l1.99-.199 1.99-.199a5 5 0 0 1-.03-.401zm.04.6-1.952.434q.084.383.172.731l1.94-.485 1.94-.485a25 25 0 0 1-.148-.629zm.16.68h-2c0-.052.013-.286.198-.552.194-.28.441-.398.566-.437l.596 1.909.597 1.909a2.88 2.88 0 0 0 1.525-1.097c.398-.573.518-1.2.518-1.732zm-.64.92-.485-1.94c-.209.052-.577.1-1.155.1v4c.755 0 1.48-.059 2.125-.22zm-1.64.16v-2c-1.403 0-2.115-.21-2.408-.376l-.992 1.736-.992 1.737c1.2.686 2.755.903 4.392.903zm-3.4-.64 1.038-1.71a3 3 0 0 1-.524-.384c-.082-.083-.035-.064.012.068l-1.886.666-1.886.666c.397 1.124 1.352 1.884 2.208 2.404zm-1.36-1.36 1.897-.632a9 9 0 0 1-.324-1.377l-1.973.329-1.973.329c.12.716.275 1.381.476 1.984zm-.4-1.68 1.972-.332-1.24-7.36-1.972.332-1.972.332 1.24 7.36zm-1.24-7.36 1.981-.272-.68-4.96-1.98.272-1.982.272.68 4.96zM52.101 49v-2l-.86 3.806zm.84.4.894-1.789-.017-.008-.017-.009zm1.28.64 1.176-1.617-.134-.098-.148-.074zm.4.72-1.99-.199-.01.1v.099zm-.12.92-1.916-.575-.027.09-.018.093zM54.1 53l-1.89-.657-.823 2.368 2.492.277zm.36.04-.22 1.988.11.012h.11zm3.2.04-.044 2h.001zm2.72.24-.463 1.946zm.76.88-1.986-.234-.014.117v.117zm-.36 2.12-1.904-.612-.007.022-.007.022zm-.72 1.92-1.806-.86zm-1.44 1.4-.138 1.995.069.005h.069zm-1.16-.08.138-1.995-.04-.003-.038-.001zm-5.36-.16.06-2-1.628-.048-.378 1.585zm-.8 3.36-1.946-.463-.57 2.392 2.459.07zm2.8.08-.057 2h.057zm3.92.16-.684 1.88.098.035.1.025zm.6.48-1.897.633.045.134.063.127zm-.2 2.92-1.92-.558-.01.03-.007.028zm-.88 1.88-1.505-1.317-.024.028-.023.028zm-5.52.6.074-1.999-.037-.001h-.037zm-4.32-.12-.27 1.982.011.001zm-1.44-.6-1.36 1.466.03.027.03.025zm-1.04-1.2-1.68 1.087.023.033.023.033zm-.68-1.16-1.816.838.013.028.014.028zm-.24-1.04-1.985-.248-.015.123v.125zm.08-.64-1.95-.446-.022.098-.013.1zm1.08-4.72 1.95.446.489-2.138-2.175-.29zm-.92-.28-1.302 1.519.114.097.128.08zm0-3.08-1.937-.5-.007.03-.007.03zm.76-2.12-1.773-.925-.008.015-.008.016zm2.08-.92v2h1.517l.409-1.46zm1.12-4 1.926.54.655-2.34-2.422-.194zm-1-.08.16-1.994-.08-.006h-.08zm-.4-3.52-1.908-.599-.006.017-.005.018zm.92-2.36 1.505 1.317.038-.044.036-.045zm.64-.44.434 1.952.1-.022.098-.033zm.72-.16-.04-2-.091.002-.09.01zm3.92-.08.073-1.999-.057-.002-.057.001zm6.52.24.08-1.998h-.007zm2 .08-.08 1.998.04.002h.04zm1.6.2-.718 1.867.022.008.023.008zm.2 3.2-1.92-.558-.01.03-.007.028zm-.72 2.04-1.789-.894-.018.036-.017.037zm-.76 1 .894 1.789zm-1.12.2-.06 2h.06zm-1.32-.04-.092 1.998h.016l.015.001zm-4.36-.2.092-1.998h-.02zM53.1 49l.071-1.999-.035-.001H53.1zm-1 0-.86 1.806.84.4.86-1.806.86-1.806-.84-.4zm.84.4-.895 1.789.16.08.16.08.16.08.16.08c.143.07.498.249.64.32l.895-1.789.894-1.789-.64-.32-.64-.32zm1.28.64-1.176 1.617a1 1 0 0 1-.252-.306 1.37 1.37 0 0 1-.162-.79l1.99.199 1.99.199c.122-1.217-.575-2.072-1.214-2.537zm.4.72h-2c0 .198-.023.304-.036.345l1.916.575 1.916.575c.147-.492.204-1 .204-1.495zm-.12.92-1.961-.392c-.024.118-.115.443-.328 1.055L54.1 53l1.889.657c.214-.614.39-1.17.472-1.585zM54.1 53l-.22 1.988.36.04.22-1.988.22-1.988-.36-.04zm.36.04v2q1.332 0 3.157.04l.043-2 .043-2q-1.855-.04-3.243-.04zm3.2.04-.043 2c1.237.026 1.962.105 2.3.186l.463-1.946.463-1.946c-.782-.186-1.87-.267-3.14-.294zm2.72.24-.463 1.946c.06.014-.189-.027-.44-.319a1.4 1.4 0 0 1-.287-.54 1.2 1.2 0 0 1-.036-.44l1.986.233 1.986.234c.08-.676-.063-1.454-.622-2.101-.506-.585-1.16-.84-1.66-.959zm.76.88h-2c0 .426-.077.925-.264 1.508l1.904.612 1.904.612c.293-.91.456-1.825.456-2.732zm-.36 2.12-1.918-.568c-.19.64-.394 1.18-.608 1.628l1.806.86 1.806.86c.32-.672.595-1.412.832-2.212zm-.72 1.92-1.806-.86a6 6 0 0 1-.274.522 1 1 0 0 1-.062.095c-.01.014.006-.01.048-.051l1.414 1.414 1.414 1.414c.454-.453.804-1.111 1.072-1.674zm-.68 1.12-1.414-1.414c.116-.116.254-.202.392-.253a.8.8 0 0 1 .262-.053v4c.73 0 1.535-.227 2.174-.866zm-.76.28.137-1.995-1.16-.08-.137 1.995-.138 1.995 1.16.08zm-1.16-.08.06-2-5.36-.16-.06 2-.06 2 5.36.16zm-5.36-.16-1.946-.463-.8 3.36 1.946.463 1.946.463.8-3.36zm-.8 3.36-.057 2 2.8.08.057-2 .057-2-2.8-.08zm2.8.08v2h2.08v-4H54.1zm2.08 0v2h.96v-4h-.96zm.96 0v2c.046 0 .108.007.196.04L58.02 63l.683-1.88a4.6 4.6 0 0 0-1.563-.28zm.88.16-.485 1.94a1 1 0 0 1-.375-.198 1.37 1.37 0 0 1-.437-.63l1.897-.632 1.897-.633c-.36-1.083-1.256-1.598-2.012-1.787zm.6.48-1.789.894a.6.6 0 0 1-.052-.142c-.003-.016 0-.003 0 .048h4c0-.53-.086-1.125-.37-1.694zm.16.8h-2c0 .332-.071.84-.28 1.562l1.92.558 1.92.558c.271-.932.44-1.837.44-2.678zm-.36 2.12-1.937-.5c-.171.664-.358.96-.448 1.063l1.505 1.317 1.505 1.317c.657-.75 1.056-1.708 1.312-2.697zm-.88 1.88-1.552-1.261c-.021.026 0-.01.078-.048a.5.5 0 0 1 .194-.051v4c1.165 0 2.143-.53 2.832-1.379zm-1.28.64v-2h-2.12v4h2.12zm-2.12 0v-2q-1.002 0-2.046-.039l-.074 1.999-.074 1.999a59 59 0 0 0 2.194.041zm-2.12-.04v-2h-2.28v4h2.28zm-2.28 0v-2q-1.015-.001-1.781-.103l-.26 1.983-.258 1.983q1.074.138 2.299.137zm-2.04-.12.27-1.982c-.284-.038-.382-.114-.408-.137L46.26 68.16l-1.302 1.519c.72.617 1.582.941 2.472 1.063zm-1.44-.6 1.36-1.466a5.7 5.7 0 0 1-.766-.887L45.22 66.96l-1.634 1.153q.589.838 1.313 1.513zm-1.04-1.2 1.68-1.086a11 11 0 0 1-.571-.968l-1.79.894-1.788.894c.205.41.474.865.79 1.352zm-.68-1.16 1.816-.838a.5.5 0 0 1-.056-.202h-4c0 .664.155 1.296.424 1.878zm-.24-1.04 1.984.248.08-.64-1.984-.248-1.985-.248-.08.64zm.08-.64 1.95.446 1.08-4.72-1.95-.446-1.95-.446-1.08 4.72zm1.08-4.72.264-1.983a1.4 1.4 0 0 1-.212-.04l.005.002a1 1 0 0 1 .083.045l-1.06 1.696-1.06 1.696c.558.348 1.184.496 1.716.566zm-.92-.28 1.302-1.518c.445.381.418.813.418.718h-4c0 .652.16 1.617.978 2.319zm-.28-.8h2c0-.517.07-1.127.23-1.84l-1.95-.44-1.95-.44c-.213.94-.33 1.85-.33 2.72zm.28-2.28 1.937.5c.188-.729.397-1.296.612-1.726l-1.79-.894-1.788-.894c-.372.743-.669 1.59-.908 2.514zm.76-2.12 1.773.925a.46.46 0 0 1-.16.148c-.072.039-.065.007.107.007v-4c-1.397 0-2.754.579-3.493 1.995zm1.72-.92v2h.36v-4h-.36zm.36 0 1.926.54 1.12-4L48.5 49l-1.926-.54-1.12 4zm1.12-4 .16-1.994-1-.08-.16 1.994-.16 1.994 1 .08zm-1-.08v-2c.007 0 .206.004.442.172L46.78 48.72l-1.163 1.627c.61.436 1.29.573 1.883.573zm-.72-.2 1.162-1.627c.205.146.364.347.46.565.089.203.098.362.098.422h-4c0 .74.261 1.656 1.117 2.267zm-.28-.64h2c0 .022.006-.125.102-.553.086-.388.223-.905.417-1.563L47.1 45.4l-1.918-.564a30 30 0 0 0-.483 1.817c-.104.466-.198.978-.198 1.427zm.6-2.68 1.908.599c.208-.662.376-1.15.505-1.483.066-.167.111-.27.138-.324.044-.088.005.015-.126.165L48.02 43.04l-1.505-1.317a3.2 3.2 0 0 0-.451.7c-.097.195-.19.414-.277.64-.177.455-.376 1.04-.595 1.738zm.92-2.36 1.579 1.228a.7.7 0 0 1-.146.13 1 1 0 0 1-.36.154L48.66 42.6l-.434-1.952c-.794.176-1.382.646-1.785 1.164zm.64-.44.632 1.897q.169-.054.309-.07l-.221-1.987-.22-1.988a5.5 5.5 0 0 0-1.133.25zm.72-.16.04 2 3.92-.08-.04-2-.04-2-3.92.08zm3.92-.08-.074 1.999 6.52.24.074-1.999.074-1.999-6.52-.24zm6.52.24-.08 1.998 2 .08.08-1.998.08-1.998-2-.08zm2 .08v2c.303 0 .53.014.692.035.17.02.219.043.19.032l.718-1.867.718-1.867c-.702-.27-1.539-.333-2.318-.333zm1.6.2-.673 1.883a1.24 1.24 0 0 1-.668-.575c-.116-.215-.1-.348-.1-.268h4c0-.48-.076-1.066-.378-1.628a2.75 2.75 0 0 0-1.508-1.296zm.56 1.04h-2c0 .366-.074.89-.28 1.602l1.92.558 1.92.558c.274-.941.44-1.857.44-2.718zm-.36 2.16-1.937-.5c-.191.744-.389 1.28-.572 1.646l1.789.894 1.789.894c.35-.7.633-1.524.868-2.434zm-.72 2.04-1.824-.82a2 2 0 0 1-.135.256l-.003.004v-.001l.003-.003.011-.013.05-.049a1 1 0 0 1 .243-.163l.895 1.789.894 1.789c.923-.461 1.416-1.36 1.69-1.968zm-.76 1-.895-1.789c.078-.039.11-.038.063-.03a2 2 0 0 1-.288.019v4c.622 0 1.35-.08 2.014-.411zm-1.12.2.06-2-1.32-.04-.06 2-.06 2 1.32.04zm-1.32-.04.092-1.998-4.36-.2-.092 1.998-.092 1.998 4.36.2zm-4.36-.2.071-1.999-2.24-.08-.07 1.999-.071 1.999 2.24.08zM53.1 49v-2h-1v4h1zm19.339-.16v-2l-.633 3.897zm1.2.4.795-1.835-.08-.035-.083-.027zm1.64.8-1.074 1.687.033.021.033.02zm.28 2.24 1.897.633.02-.062.017-.062zm-.44 1.4 1.926.537.003-.01zm-1.36 4.88-1.927-.537-.003.012-.004.013zm-2.12 8-1.934-.512-.007.028-.007.03zM71 68.28l-1.645-1.138-.03.044-.029.046zm-4.48.16-.42 1.956zm-1.36-3 1.923.55zm.44-1.52 1.915.575.002-.008zm4.32-14.6-1.898-.633-.01.033-.01.032zm.16-.48 1.897.632.825-2.475-2.605-.154zm-.68-.04.117-1.996-.058-.004h-.06zm-4.28-.04-.304 1.977.075.011.075.006zm-.76-.28-1.537 1.28.117.14.14.116zm-.28-.56-1.953.434.006.026.006.025zm.28-2.76-1.923-.55-.006.02-.005.018zm.76-1.92-1.645-1.138zm.72-.6.434 1.952.07-.015.07-.021zm.96-.12.052-2H66.8zm1.52.04.075-1.999h-.023zm4.24.16.078-1.998h-.003zm5.12.2.096-1.998h-.019zm2.48.12-.097 1.998.048.002h.049zm1.08.24-1.2 1.6.044.033.046.031zm.08 2.68 1.897.633.004-.014.004-.013zm-.52 1.52-1.886-.666-.018.05-.015.052zm-.56 1.16-1.6-1.2-.01.012-.008.012zm-1 .44-.084 1.998.042.002h.042zm-.96-.04-.118 1.996.017.002h.017zm-3.4-.2.117-1.997-.058-.003h-.06zm-2.44 0-.633 1.897 1.2.4.633-1.897.632-1.897-1.2-.4zm1.2.4-.796 1.835c.805.349 1.218.56 1.362.652l1.074-1.687 1.073-1.687c-.442-.282-1.123-.604-1.918-.948zm1.64.8-1.008 1.728a1.05 1.05 0 0 1-.369-.386 1.04 1.04 0 0 1-.143-.502h4a2.91 2.91 0 0 0-1.473-2.568zm.48.84h-2c0 .221-.035.514-.135.891l1.935.509 1.934.509a7.5 7.5 0 0 0 .266-1.909zm-.2 1.4-1.898-.633a31 31 0 0 0-.472 1.507l1.93.526 1.93.526c.064-.236.195-.657.407-1.294zm-.44 1.4-1.927-.537-1.36 4.88 1.927.537 1.926.537 1.36-4.88zm-1.36 4.88-1.934-.512-2.12 8 1.934.512 1.933.512 2.12-8zm-2.12 8-1.948-.454c-.08.343-.158.6-.227.787-.072.194-.116.258-.11.249L71 68.28l1.644 1.138c.463-.668.743-1.546.943-2.404zM71 68.28l-1.704-1.048q.094-.151.229-.264a1 1 0 0 1 .231-.142c.11-.047.136-.026.004-.026v4c.93 0 2.204-.271 2.943-1.472zm-1.24.52v-2a13.5 13.5 0 0 1-2.821-.316l-.42 1.956-.418 1.956c1.244.266 2.465.404 3.659.404zm-3.24-.36.419-1.956a2.5 2.5 0 0 1-.404-.115c-.08-.033-.081-.044-.04-.012a.9.9 0 0 1 .225.285c.085.164.12.335.12.478h-4c0 1.009.483 1.832 1.184 2.383.622.488 1.38.743 2.077.893zm-1.68-1.32h2v-.022l.007-.066q.009-.087.037-.238c.04-.204.103-.47.199-.805l-1.923-.549-1.923-.55c-.222.777-.397 1.562-.397 2.23zm.32-1.68 1.923.55c.213-.749.357-1.243.432-1.495L65.6 63.92l-1.916-.575c-.084.281-.234.8-.447 1.546zm.44-1.52 1.918.567 4.32-14.6-1.918-.567-1.918-.568-4.32 14.6zm4.32-14.6 1.897.633.16-.48-1.897-.633-1.898-.633-.16.48zm.16-.48.117-1.997-.68-.04L69.4 48.8l-.118 1.997.68.04zm-.68-.04v-2h-2.16v4h2.16zm-2.16 0v-2h-.68v4h.68zm-.68 0v-2a18 18 0 0 1-1.287-.034l-.153 1.994-.154 1.994c.422.033.961.046 1.594.046zm-1.44-.04.304-1.977c-.078-.012-.092-.02-.063-.01s.14.055.28.17L64.36 48.48l-1.28 1.536c.57.476 1.247.646 1.736.72zm-.76-.28 1.536-1.28a.7.7 0 0 1 .124.235l-1.94.485-1.94.485c.122.489.346.951.683 1.355zm-.28-.56 1.952-.434a2 2 0 0 1-.028-.154L66 47.28h-4c0 .37.052.733.127 1.074zm-.08-.64h2c0-.245.067-.753.293-1.608l-1.933-.512-1.934-.512c-.253.958-.426 1.864-.426 2.632zm.36-2.12 1.923.55c.122-.427.231-.754.326-.994.101-.255.159-.343.155-.338L65.12 43.24l-1.645-1.138c-.444.642-.77 1.567-1.038 2.509zm.76-1.92 1.644 1.138c.05-.072.054-.06-.004-.012-.06.05-.222.168-.486.226l-.434-1.952-.434-1.952c-.98.218-1.593.926-1.93 1.414zm.72-.6.574 1.916a1.5 1.5 0 0 1 .386-.036v-4a5.4 5.4 0 0 0-1.535.204zm.96-.12-.053 2 1.52.04.053-2 .052-2-1.52-.04zm1.52.04-.076 1.999 4.24.16.076-1.999.075-1.999-4.24-.16zm4.24.16-.078 1.999 5.12.2.078-1.999.078-1.998-5.12-.2zm5.12.2-.097 1.998 2.48.12.097-1.998.096-1.998-2.48-.12zm2.48.12v2q.112 0 .168.007c.04.003.053.007.048.005a1 1 0 0 1-.096-.032 1 1 0 0 1-.24-.14l1.2-1.6 1.2-1.6c-.755-.566-1.675-.64-2.28-.64zm1.08.24-1.11 1.664a1.3 1.3 0 0 1-.502-.617c-.044-.122-.028-.16-.028-.047h4c0-.676-.139-1.923-1.25-2.664zm.36 1h-2c0 .299-.052.653-.186 1.074l1.906.606 1.906.606a7.5 7.5 0 0 0 .374-2.286zm-.28 1.68-1.898-.633a89 89 0 0 1-.508 1.487l1.886.666 1.886.666q.246-.7.531-1.553zm-.52 1.52-1.919-.564a1.6 1.6 0 0 1-.241.524l1.6 1.2 1.6 1.2c.406-.542.69-1.154.878-1.796zm-.56 1.16-1.618-1.176c.103-.141.246-.256.402-.325.141-.062.23-.059.216-.059v4c.915 0 1.934-.324 2.617-1.264zm-1 .44.083-1.998-.96-.04-.083 1.998-.084 1.998.96.04zm-.96-.04.117-1.997-3.4-.2-.117 1.997-.118 1.996 3.4.2zm-3.4-.2v-2h-1.92v4h1.92zm-1.92 0v-2h-.52v4h.52zm20.613 5.72 1.996.117-3.846-.879zm-1.68 4.08 1.79.89.032-.063.027-.066zm-3.76 7.56 1.764.941.014-.025.012-.025zm-.68 1.32 1.767.936.011-.02.01-.022zm-.72.92.97 1.748.072-.039.067-.045zm-3.28.12-.51 1.934.049.013.048.01zm-1.52-.64-1.069 1.691.033.02.033.02zm-.76-1.6h2v-.024zm-.04-3.32-2-.028v.052zm.16-11.4 2 .028V51.6zm.12-5.12-1.998-.101v.012l-.001.012zm.44-3.56 1.638 1.147.025-.036.024-.037zm.68-.52.392 1.961.092-.018.09-.027zm4.04.36-.813 1.828zm1.24.88-1.857.743.047.117.061.111zm.2 1.4 1.996.12.004-.06v-.06zm-.44 7.36 1.993.161.002-.02v-.022zm-.32 3.96-1.994-.161 3.841.927zm4.16-10.04-1.835-.796-.007.015-.006.015zm1.32-2.84-1.707-1.043-.022.035-.02.037zm.76-.92-.972-1.748-.045.025-.043.027zm3.24-.04-.343 1.97.047.009.047.006zm1.44.48-1.2 1.6.073.055.078.048zm.6.72-1.962.392.004.021.005.02zm.08 1.12 1.999.048.001-.024v-.024zm-.16 6.68 1.998.083.001-.018v-.017zm-.2 4.84-1.999-.083 3.841.861zm1.959-4.64 1.843.778.006-.014.006-.014zm3.041-7.52-1.819-.833-.019.041-.017.042zm.799-1.4-1.536-1.28-.006.007-.005.006zm4.08.12-.672 1.883.007.003.007.002zm1.481 2.52-1.839-.788-.006.014-.005.013zm-3.8 9.24 1.81.85.021-.044.018-.045zm-4.041 8.6 1.77.931.021-.04.02-.04zm-2 3.8 1.737.992.017-.03.016-.03zm-1.08 1.44 1.074 1.687.053-.033.05-.037zm-3.84.08-.392 1.961.007.002.008.001zm-1.84-2.04-1.99.199.005.049.008.049zm-.04-4.24 1.994.166.004-.052.002-.052zm.12-3.88-1.996-.125-.002.032v.031zm.2-3.2 1.997.125v-.008zm.04-.68-1.849-.762-1.68 4.08 1.85.762 1.849.761 1.68-4.08zm-1.68 4.08-1.79-.89-3.76 7.56 1.79.89 1.791.89 3.76-7.56zm-3.76 7.56-1.764-.941a59 59 0 0 0-.704 1.367l1.788.894 1.79.894q.35-.7.655-1.273zm-.68 1.32-1.767-.936a2 2 0 0 1-.168.273q-.02.023.001.002a1 1 0 0 1 .105-.083l1.11 1.664 1.109 1.664c.656-.437 1.086-1.097 1.378-1.648zm-.72.92-.97-1.748-.022.01a.3.3 0 0 1 .052-.01l.22 1.988.221 1.988a3.9 3.9 0 0 0 1.47-.48zm-.72.24-.22-1.988a5 5 0 0 1-.58.028v4q.53.001 1.021-.052zm-.8.04v-2a6.6 6.6 0 0 1-1.347-.117l-.412 1.957-.413 1.957a10.6 10.6 0 0 0 2.172.203zm-1.76-.16.51-1.934a4.2 4.2 0 0 1-1.027-.437l-1.002 1.731-1.003 1.73a8.2 8.2 0 0 0 2.013.844zm-1.52-.64 1.069-1.691a.5.5 0 0 1 .169.193c.029.063.003.05.003-.102h-4c0 1.24.458 2.512 1.692 3.291zm-.76-1.6 2-.024-.04-3.32-2 .024-2 .024.04 3.32zm-.04-3.32 2 .028.16-11.4-2-.028-2-.028-.16 11.4zm.16-11.4h2c0-1.298.04-2.976.119-5.043l-1.999-.077-1.998-.077c-.08 2.093-.121 3.828-.121 5.197zm.12-5.12 1.998.101c.052-1.035.113-1.803.177-2.326a6 6 0 0 1 .082-.515c.01-.044.012-.04 0-.007-.006.017-.055.158-.178.334l-1.638-1.147-1.639-1.147c-.29.414-.4.881-.443 1.072-.064.276-.113.59-.153.92a38 38 0 0 0-.203 2.614zm.44-3.56 1.688 1.074a.7.7 0 0 1-.163.165 1.1 1.1 0 0 1-.452.202l-.392-1.961-.393-1.961c-.94.188-1.582.79-1.975 1.407zm.68-.52.575 1.916c.019-.006.143-.036.425-.036v-4c-.517 0-1.06.05-1.574.204zm1-.12v2c1.188 0 1.879.152 2.228.308l.813-1.828.812-1.828c-1.09-.484-2.427-.652-3.853-.652zm3.04.48-.812 1.828q.213.095.343.166c.089.048.14.081.162.097.025.018-.003.002-.056-.055a1.3 1.3 0 0 1-.253-.413l1.856-.743 1.857-.743c-.268-.671-.778-1.087-1.089-1.308a7 7 0 0 0-1.195-.657zm1.24.88-1.748.971a1 1 0 0 1-.088-.204c-.005-.017 0-.006.007.046.015.107.03.295.03.587h4c0-.402-.02-.793-.07-1.153-.047-.327-.141-.785-.382-1.218zm.2 1.4-1.996-.12-.44 7.36 1.997.12 1.996.12.44-7.36zm-.44 7.36-1.993-.161-.32 3.96 1.993.161 1.994.161.32-3.96zm-.32 3.96 1.848.766 4.16-10.04-1.848-.766-1.847-.766-4.16 10.04zm4.16-10.04 1.835.796c.618-1.424 1.022-2.283 1.234-2.665l-1.748-.971-1.749-.971c-.321.578-.797 1.612-1.406 3.015zm1.32-2.84 1.707 1.043c.116-.19.198-.302.245-.36l.013-.015a1 1 0 0 1-.145.108l-1.06-1.696-1.06-1.696c-.645.404-1.104 1.078-1.406 1.573zm.76-.92.972 1.748c.026-.014-.081.052-.291.052v-4a3.4 3.4 0 0 0-1.652.452zm.68-.2v2h.56v-4h-.56zm.56 0v2q.933.002 1.658.13l.343-1.97.342-1.97c-.742-.13-1.525-.19-2.343-.19zm2 .16-.248 1.985c.224.027.37.063.456.092.088.03.083.04.032.003l1.2-1.6 1.2-1.6c-.719-.54-1.596-.765-2.391-.865zm1.44.48-1.048 1.703c.109.067-.213-.09-.313-.59l1.961-.393 1.962-.392c-.207-1.034-.929-1.672-1.513-2.031zm.6.72-1.952.434c-.002-.012.008.035.018.168.009.127.015.297.015.518h4c0-.533-.025-1.09-.128-1.554zm.08 1.12-1.999-.048-.16 6.68 2 .048 1.999.048.16-6.68zm-.16 6.68-1.998-.083-.2 4.84 1.999.083 1.998.083.2-4.84zm-.2 4.84 1.843.778 1.96-4.64-1.843-.778-1.842-.778-1.96 4.64zm1.96-4.64 1.855.75 3.04-7.52-1.854-.75-1.855-.75-3.04 7.52zm3.041-7.52 1.818.833c.271-.593.453-.874.529-.967l-1.548-1.266-1.547-1.267c-.404.494-.756 1.147-1.071 1.834zm.799-1.4 1.537 1.28a.75.75 0 0 1-.282.208c-.094.04-.139.032-.095.032v-4c-.959 0-1.967.325-2.696 1.2zm1.16-.48v2c.521 0 1.257.13 2.248.483l.672-1.883.673-1.884c-1.249-.446-2.46-.716-3.593-.716zm2.92.6-.658 1.888c.208.073.356.14.457.195s.135.087.129.081c-.008-.008-.066-.064-.12-.177a.9.9 0 0 1-.088-.387h4c0-2.084-1.827-3.058-3.061-3.488zm1.72 1.6h-2q.002-.076.007-.097.003-.022-.002.002a2 2 0 0 1-.083.227l1.839.788 1.838.788c.203-.474.401-1.072.401-1.708zm-.239.92-1.85-.76-3.8 9.24 1.85.76 1.849.76 3.8-9.24zm-3.8 9.24-1.811-.85-4.04 8.6 1.81.85 1.811.85 4.04-8.6zm-4.041 8.6-1.769-.931-2 3.8 1.769.931 1.77.931 2-3.8zm-2 3.8-1.736-.992c-.188.33-.34.56-.453.712-.128.17-.152.165-.067.103l1.177 1.617 1.176 1.618c.675-.492 1.214-1.321 1.64-2.066zm-1.08 1.44-1.073-1.687a1 1 0 0 1 .18-.09c.01-.004-.01.003-.075.014a4.6 4.6 0 0 1-.712.043v4c.48 0 .944-.026 1.37-.097.397-.067.912-.195 1.384-.496zm-1.68.28v-2q-.94-.001-1.782-.164l-.377 1.964-.378 1.964q1.238.237 2.537.236zm-2.16-.2.393-1.961q-.145-.031-.22-.056l-.077-.03c-.004-.003.091.047.189.189l-1.644 1.138-1.645 1.138c.671.97 1.734 1.368 2.612 1.543zm-1.36-.72 1.645-1.138c-.024-.036-.1-.166-.147-.479l-1.978.297-1.977.297c.113.754.357 1.503.813 2.161zm-.48-1.32 1.99-.199a21 21 0 0 1-.07-1.961h-4c0 .934.028 1.73.09 2.359zm-.08-2.16h2v-1.08h-4v1.08zm0-1.08h2q0-.443.034-.834l-1.993-.166-1.994-.166q-.046.57-.046 1.166zm.04-1 2 .062.12-3.88-2-.062-1.998-.062-.12 3.88zm.12-3.88 1.997.125.2-3.2-1.996-.125-1.997-.125-.2 3.2zm.2-3.2 1.997.117.04-.68-1.996-.117-1.997-.117-.04.68zm28.418-9.88-1.952-.434-1.302 5.857 4.556-3.904zm.56-.48 1.302 1.518.006-.005.006-.005zm1.24-1.08 1.314 1.508.006-.005.005-.005zm1.44-1.2 1.147 1.639.015-.01.015-.011zm3.2 2.52-1.951.44zm0 10.6-1.949-.446-.003.01-.002.011zm-1.88 5.8 1.84.785.004-.009zm-4.04 5.4-1.312-1.51-.006.005-.005.005zm-11.28-.08-1.425 1.403.005.006.006.005zm1.32-19.32-1.642-1.142-.005.008zm9.44-5.32-1.06 1.696.044.027.045.025zm.2 2.04-1.957-.412-.01.05-.008.05zm-.56 2.84 1.92-.56-1.428-4.896-2.281 4.562zm-.24.72-1.923-.55-.014.05-.011.05zm-.32.76-1.536-1.28-.013.015-.012.016zm-4.2 4.88 1.818.833.005-.01zm-.88 7.72 1.842-.78zm2.92.24-1.524-1.295zm1.28-2 1.789.894.006-.011.006-.012zm1.8-10.4-1.993.166.001.007zm0-3.64 1.302 1.519.56-.48-1.302-1.519-1.301-1.519-.56.48zm.56-.48 1.314 1.508 1.24-1.08-1.314-1.508-1.313-1.508-1.24 1.08zm1.24-1.08 1.325 1.498c.705-.623 1.103-.948 1.262-1.06L125.19 42.6l-1.147-1.639c-.374.262-.935.737-1.618 1.341zm1.44-1.2 1.177 1.617a.4.4 0 0 1-.109.055c-.035.01-.049.008-.028.008v-4c-.777 0-1.546.215-2.216.703zm1.04-.32v2a.55.55 0 0 1-.253-.067c-.076-.041-.082-.07-.039-.012.111.145.316.536.501 1.359l1.951-.44 1.951-.44c-.241-1.07-.609-2.1-1.219-2.9-.664-.874-1.647-1.5-2.892-1.5zm2.16 2.84-1.951.44c.402 1.783.591 3.353.591 4.72h4c0-1.726-.237-3.597-.689-5.6zm.64 5.16h-2c0 1.597-.193 3.261-.589 4.994l1.949.446 1.95.446c.457-2 .69-3.963.69-5.886zm-.64 5.44-1.954-.425c-.37 1.702-.956 3.517-1.769 5.449l1.843.776 1.844.776c.893-2.122 1.561-4.173 1.991-6.151zm-1.88 5.8-1.839-.785c-.721 1.69-1.873 3.25-3.513 4.676l1.312 1.509 1.313 1.51c2.04-1.775 3.581-3.815 4.567-6.125zm-4.04 5.4-1.323-1.5c-1.474 1.301-3.052 1.9-4.797 1.9v4c2.789 0 5.291-1.001 7.444-2.9zm-6.12 2.4v-2c-1.107 0-2.347-.496-3.745-1.894l-1.415 1.414-1.414 1.414c1.908 1.908 4.108 3.066 6.574 3.066zm-5.16-2.48 1.426-1.403c-1.143-1.161-1.906-3.13-1.906-6.317h-4c0 3.746.891 6.924 3.055 9.123zm-2.48-7.72h2c0-3.607 1.119-7.084 3.448-10.466l-1.648-1.134-1.647-1.134c-2.739 3.978-4.153 8.234-4.153 12.734zm3.8-11.6 1.642 1.142C116.513 45.27 118.82 44 121.03 44v-4c-4.03 0-7.402 2.411-10.162 6.378zm8.52-5.52v2c.094 0 .124.008.105.004a.8.8 0 0 1-.245-.108l1.06-1.696 1.06-1.696c-.667-.417-1.406-.504-1.98-.504zm.92.2-.971 1.748a1.37 1.37 0 0 1-.566-.602.95.95 0 0 1-.103-.386h4c0-.802-.29-1.898-1.388-2.508zm.36.76h-2c0 .158-.026.437-.117.868l1.957.412 1.957.412a8.3 8.3 0 0 0 .203-1.692zm-.16 1.28-1.975-.312c-.079.5-.138.822-.177.998l1.952.434 1.953.434c.067-.304.142-.728.223-1.242zm-.56 2.84-1.789-.894c-.151.303-.279.733-.374 1.065l1.923.549 1.923.55a8 8 0 0 1 .139-.447c.005-.012-.006.018-.033.071zm-.24.72-1.948-.45-.026.098-.009.026q.002-.007.029-.056.026-.05.098-.138l1.536 1.28 1.537 1.28c.429-.514.625-1.126.732-1.59zm-.32.76-1.561-1.25c.077-.096.141-.154.149-.162q.026-.023.004-.004c-.034.027-.1.077-.21.156-.219.155-.544.374-.988.66l1.086 1.68 1.087 1.68c.463-.3.844-.555 1.132-.76.143-.101.28-.203.4-.3.082-.065.287-.23.463-.45zm-1.52 1.08-1.086-1.68c-1.417.917-2.506 2.643-3.416 4.656l1.822.824 1.823.824c.85-1.88 1.547-2.688 1.944-2.945zm-2.68 3.8-1.818-.833c-.98 2.138-1.502 4.288-1.502 6.433h4c0-1.482.359-3.065 1.138-4.767zm-1.32 5.6h-2c0 1 .206 1.97.598 2.9l1.842-.78 1.842-.78a3.4 3.4 0 0 1-.282-1.34zm.44 2.12-1.842.78c.246.58.628 1.166 1.22 1.605a3.35 3.35 0 0 0 2.022.655v-4c.022 0 .077.003.151.026a.7.7 0 0 1 .212.108c.125.094.127.16.079.047zm1.4 1.04v2c1.289 0 2.314-.646 3.044-1.505L118.87 61.4l-1.524-1.295c-.097.114-.144.134-.127.125a.3.3 0 0 1 .131-.03zm1.52-.8 1.524 1.295c.582-.684 1.092-1.494 1.545-2.4l-1.789-.895-1.789-.894c-.346.693-.689 1.216-1.015 1.599zm1.28-2 1.801.871c.485-1.002.937-2.376 1.374-4.044l-1.935-.507-1.934-.507c-.416 1.586-.791 2.665-1.106 3.316zm1.24-3.68 1.935.507c.465-1.774.705-3.519.705-5.227h-4c0 1.332-.186 2.734-.574 4.213zm.64-4.72h2q0-1.153-.087-2.173L121.95 49l-1.992.173q.071.82.072 1.827zm-.08-2 1.993-.166q-.097-1.168-.433-2.314l-1.92.56-1.92.56q.225.773.287 1.526zm22.281 10.72-.921-1.775-1.871.97 1.068 1.818zm4.56 7.76 1.789-.894-.03-.06-.035-.06zm-1.6 3-.996-1.734-.022.012-.022.014zm-4.28-.2-1.799.875.031.063.035.06zm-.88-1.76-1.759.952.011.02.011.02zm-3.92-7.24 1.759-.952-2.451-4.527-1.248 4.994zm-1.56 6.24 1.934.509.003-.012.003-.012zm-.44 1.16-1.715-1.029-.017.029-.016.029zm-4.36-.04-.518 1.932.022.006.022.005zm-.52-6.12 1.929.53.001-.005zm1.8-6.44 1.919.563.003-.01.003-.011zm1.88-6.68 1.925.542 1.125-3.996-3.826 1.61zm-1.36.48.515 1.932zm-1.8-.12-1.789.894.07.14.091.129zm-.16-.8-1.987-.23-.013.115v.115zm.64-2.76 1.914.579.004-.012zm.88-2.04 1.228 1.579.052-.04.049-.044zm.76-.44-.575-1.916zm1.4-.36.467 1.945.036-.009.036-.01zm2.96-.6-.316-1.975-.006.001zm10.12 1.8-1.252 1.56.007.005.007.006zm.84 11.28-1.559-1.253zm-12.52-6.8-.522-1.93.193 3.903zm.48.08.405-1.959-.038-.007-.038-.007zm1.16.24-.405 1.959.038.007.038.007zm1.84.56-.981 1.743.043.024.044.022zm.24 3.2 1.903.614zm-.52 1.6 1.873.702.013-.034.011-.035zm-.12.32-1.873-.702-1.013 2.702h2.886zm3.16-1.12 1.207 1.595.006-.005zm.4-4.8-1.082 1.682.022.014.022.014zm.92 10.6-1.724 1.013 4.56 7.76 1.724-1.013 1.724-1.013-4.56-7.76zm4.56 7.76-1.789.894c.048.096.067.153.073.175s-.004-.004-.004-.069h4c0-.707-.221-1.353-.491-1.894zm.28 1h-2c0-.404.206-.551.073-.41-.124.132-.407.364-.949.676l.996 1.734.996 1.734c.711-.408 1.368-.87 1.871-1.404.494-.525 1.013-1.313 1.013-2.33zm-1.88 2-1.04-1.708c-.552.336-.99.556-1.324.688-.35.138-.49.14-.476.14v4c1.265 0 2.625-.648 3.88-1.412zm-2.84 1.12v-2c.455 0 .682.224.651.196-.007-.007-.047-.046-.114-.136a4 4 0 0 1-.244-.378l-1.733.998-1.733.998c.305.53.671 1.053 1.121 1.466.45.412 1.144.856 2.052.856zm-1.44-1.32 1.798-.875c-.464-.955-.793-1.618-.942-1.877l-1.736.992-1.737.992.006.01.016.03.054.102.172.34q.213.425.57 1.16zm-.88-1.76 1.759-.952-3.92-7.24-1.759.952-1.759.952 3.92 7.24zm-3.92-7.24-1.94-.485-1.56 6.24 1.94.485 1.94.485 1.56-6.24zm-1.56 6.24-1.934-.509a5 5 0 0 1-.146.47 2 2 0 0 1-.053.127l-.016.032-.006.011 1.715 1.029 1.715 1.029c.301-.502.506-1.097.659-1.68zm-.44 1.16-1.748-.971c.15-.272.346-.443.495-.542.143-.093.253-.128.285-.138.051-.014-.014.011-.272.011v4c.435 0 .924-.035 1.388-.17.434-.125 1.164-.434 1.6-1.219zm-1.24.36v-2c-.807 0-1.687-.109-2.646-.343l-.474 1.943-.474 1.943c1.227.3 2.427.457 3.594.457zm-3.12-.4.518-1.932a2.4 2.4 0 0 1-.383-.132c-.075-.036-.079-.048-.045-.019a.8.8 0 0 1 .178.247c.066.14.092.28.092.396h-4c0 .965.429 1.782 1.09 2.363.597.524 1.337.822 2.032 1.009zm-1.64-1.44h2c0 .11-.013.107.035-.143.038-.202.1-.486.19-.862.179-.748.452-1.793.824-3.146l-1.929-.529-1.929-.53a109 109 0 0 0-.856 3.274c-.097.405-.175.756-.23 1.044a5 5 0 0 0-.105.892zm1.12-4.68 1.93.525a355 355 0 0 1 1.789-6.403l-1.919-.562-1.919-.562a361 361 0 0 0-1.811 6.477zm1.8-6.44 1.925.542 1.88-6.68-1.925-.542-1.925-.542-1.88 6.68zm1.88-6.68-.776-1.843a9 9 0 0 1-1.099.39l.515 1.933.515 1.932a13 13 0 0 0 1.621-.569zm-1.36.48-.515-1.933c-.25.067-.463.093-.645.093v4a6.5 6.5 0 0 0 1.675-.227zm-1.16.16v-2c.06 0 .219.009.422.098.218.095.419.255.565.46l-1.627 1.162-1.628 1.163c.612.856 1.529 1.117 2.268 1.117zm-.64-.28 1.789-.894a.6.6 0 0 1 .052.142c.003.016-.001.003-.001-.048h-4c0 .53.086 1.125.371 1.694zm-.16-.8 1.987.23c.06-.521.234-1.31.567-2.411l-1.914-.579-1.914-.579c-.361 1.192-.613 2.243-.713 3.11zm.64-2.76 1.918.567c.163-.553.297-.93.398-1.165.051-.117.078-.163.077-.161a1.4 1.4 0 0 1-.285.298l-1.228-1.579-1.228-1.579c-.334.26-.546.57-.665.763a5 5 0 0 0-.343.674c-.193.445-.379.994-.562 1.615zm.88-2.04 1.329 1.495c.029-.026.044-.034.043-.034l-.037.015-.575-1.916-.575-1.916a4 4 0 0 0-1.514.861zm.76-.44.575 1.916c.207-.062.624-.171 1.292-.331l-.467-1.945-.467-1.945a30 30 0 0 0-1.508.39zm1.4-.36.539 1.926c.558-.156 1.457-.342 2.743-.552l-.322-1.974-.322-1.974c-1.327.217-2.401.43-3.177.648zm2.96-.6.316 1.975c1.247-.2 2.38-.295 3.404-.295v-4c-1.269 0-2.616.118-4.036.345zm3.72-.32v2c2.105 0 3.782.583 5.148 1.68l1.252-1.56 1.252-1.56c-2.154-1.73-4.743-2.56-7.652-2.56zm6.4 2.12-1.238 1.571c1.235.973 1.878 2.277 1.878 4.149h4c0-2.981-1.117-5.49-3.402-7.291zm2.64 5.72h-2c0 1.832-.488 3.223-1.359 4.307l1.559 1.253 1.559 1.253c1.529-1.903 2.241-4.218 2.241-6.813zm-1.8 5.56-1.559-1.253c-.99 1.232-2.405 2.363-4.322 3.358l.921 1.775.921 1.775c2.296-1.191 4.188-2.647 5.598-4.402zm-12.52-6.8-.329 1.973.48.08.329-1.973.329-1.973-.48-.08zm.48.08-.405 1.959 1.16.24.405-1.959.405-1.959-1.16-.24zm1.16.24-.329 1.973c.701.117 1.054.254 1.188.33l.981-1.743.98-1.743c-.718-.404-1.592-.64-2.491-.79zm1.84.56-.894 1.789a.93.93 0 0 1-.391-.388c-.086-.162-.075-.26-.075-.201h4c0-1.135-.472-2.352-1.746-2.989zm.64 1.2h-2c0 .201-.062.638-.303 1.386l1.903.614 1.903.614c.292-.905.497-1.802.497-2.614zm-.4 2-1.903-.614c-.268.83-.438 1.353-.514 1.581l1.897.633 1.897.633c.084-.252.26-.795.526-1.619zm-.52 1.6-1.873-.702-.12.32 1.873.702 1.873.702.12-.32zm-.12.32v2c1.601 0 3.071-.545 4.367-1.525l-1.207-1.595-1.207-1.595c-.678.513-1.315.715-1.953.715zm3.16-1.12 1.213 1.59c1.416-1.08 2.307-2.565 2.307-4.39h-4c0 .361-.123.744-.733 1.21zm1.52-2.8h2c0-1.572-.733-2.89-2.082-3.71l-1.038 1.71-1.038 1.71a.6.6 0 0 1 .114.084.1.1 0 0 1 .019.023l.011.032a.7.7 0 0 1 .014.151zm-1.12-2 1.081-1.682c-1.086-.699-2.305-1.038-3.601-1.038v4c.571 0 1.031.14 1.438.402zm-2.52-.72v-2c-.927 0-1.749.038-2.369.154l.369 1.966.369 1.966c.234-.044.745-.086 1.631-.086zm-2 .12-.369-1.966c-.511.096-1.285.288-2.273.555l.522 1.931.522 1.93c.985-.266 1.625-.42 1.967-.484zm25.049 9.16-.691-1.877-2.482.915 1.556 2.138zm.32.44 1.682-1.081-.031-.049-.034-.046zm3.28 5.48-1.731 1.002.005.008zm1.64 5.68-1.236-1.573-.062.05-.059.053zm-1.32.92-.964-1.752-.053.029-.051.032zm-1.6.8-.712-1.869-.038.015-.038.016zm-2.36-.16-1.768.936.056.105.068.097zm-.48-.88-1.785.903.033.064.037.062zm-3.36-6.64-1.789.894.004.009zm-1.24-2.48 1.789-.894-2.675-5.351-1.081 5.884zm-.36 1.96 1.952.438.008-.038.007-.039zm-1.12 4.8-1.912-.588-.015.051-.013.052zm-.32.8-1.696-1.06zm-.56.44-.632-1.897zm-3.76-.44-.549 1.923.01.003zm-1.04-5.2-1.934-.511zm2.88-10.88-1.931-.52-.002.008zm2.32-8.48-1.897-.633-.008.023-.007.022zm.56-1.24 1.249 1.562.016-.013.015-.013zm.52-.28-.485-1.94-.032.008-.032.009zm3.92.32.453-1.948zm1.6 2.16-1.956-.42-.012.058-.009.058zm-.92 3.16 1.906.607zM161 52.48l-1.906-.607-1.369 4.298 4.105-1.871zm4.16-3-1.531-1.287-.008.01-.009.01zm2.4-3.92 1.84.784zm1.16-2.64 1.789.894zm3.8.2-.68 1.88.018.007.017.006zm-.12 6.44-1.756-.958zm-4.92 6.24 1.151 1.636.02-.014.019-.015zm-2 1.2.828 1.82.017-.007.018-.009zm-1.64.68-1.617 1.176.32.44 1.617-1.176 1.617-1.176-.32-.44zm.32.44-1.682 1.082c.693 1.078 1.766 2.87 3.231 5.4l1.731-1.002 1.731-1.002c-1.469-2.536-2.582-4.398-3.329-5.56zm3.28 5.48-1.726 1.01c.72 1.23 1.234 2.19 1.563 2.895.165.353.268.612.327.789.07.212.036.188.036.026h4c0-.482-.126-.942-.239-1.284a12 12 0 0 0-.498-1.22c-.405-.869-.99-1.95-1.737-3.226zm2.2 4.72h-2c0-.205.06-.384.132-.508.064-.11.114-.138.072-.105l1.236 1.573 1.236 1.573c.666-.524 1.324-1.366 1.324-2.533zm-.56.96-1.357-1.47a4.8 4.8 0 0 1-.927.638l.964 1.752.964 1.752a8.7 8.7 0 0 0 1.713-1.202zm-1.32.92-1.068-1.691a7 7 0 0 1-1.244.622L166.16 71l.712 1.869q1.027-.39 1.956-.978zm-1.6.8-.788-1.838c-.375.16-.625.198-.772.198v4c.813 0 1.603-.203 2.348-.522zm-1.56.36v-2c.273 0 .507.087.67.193.143.093.192.174.174.149L163.8 70.84l-1.644 1.138c.438.634 1.238 1.382 2.444 1.382zm-.8-.52 1.768-.936c-.234-.442-.42-.785-.533-.973l-1.715 1.029-1.715 1.029c.047.079.181.322.427.787zm-.48-.88 1.785-.903-3.36-6.64-1.785.903-1.785.903 3.36 6.64zm-3.36-6.64 1.789-.894-1.24-2.48-1.789.894-1.789.894 1.24 2.48zm-1.24-2.48-1.967-.361-.36 1.96 1.967.361 1.967.361.36-1.96zm-.36 1.96-1.952-.438a390 390 0 0 1-.756 3.324q-.138.593-.224.94-.042.174-.07.277l-.022.081-.008.028 1.912.588 1.912.588c.136-.443.533-2.156 1.16-4.95zm-1.12 4.8-1.94-.485c-.044.176-.082.235-.076.225l1.696 1.06 1.696 1.06c.273-.436.448-.911.564-1.375zm-.32.8-1.696-1.06a.97.97 0 0 1 .504-.397l.632 1.897.632 1.897a3.02 3.02 0 0 0 1.624-1.277zm-.56.44-.632-1.897-.079.024-.018.005.031-.004q.04-.006.138-.008v4c.463 0 .897-.124 1.192-.223zm-.56.12v-2c-.532 0-1.395-.131-2.661-.486L152.6 68.4l-.539 1.926c1.401.392 2.671.634 3.739.634zm-3.2-.56.549-1.923a6 6 0 0 1-.629-.215 1.5 1.5 0 0 1-.25-.125c-.022-.016.063.037.16.184.111.167.21.417.21.719h-4c0 1.2.763 1.976 1.35 2.383.59.41 1.324.69 2.061.9zm-1.96-1.36h2c0 .177-.029.255.018.02q.046-.23.157-.694.221-.924.679-2.655l-1.934-.511-1.934-.511a131 131 0 0 0-.701 2.745c-.079.33-.143.611-.188.835-.029.146-.097.474-.097.771zm.92-3.84 1.934.511 2.879-10.879-1.933-.512-1.933-.512-2.881 10.88zm2.88-10.88 1.931.52c1.34-4.986 2.101-7.763 2.301-8.412l-1.912-.588-1.912-.588c-.227.737-1.013 3.614-2.339 8.549zm2.32-8.48 1.897.632q.08-.241.145-.41a4 4 0 0 1 .101-.249c.026-.059.031-.06.01-.027a1.6 1.6 0 0 1-.344.376L157.32 42.6l-1.249-1.562c-.303.242-.483.52-.564.651a4 4 0 0 0-.25.478 11 11 0 0 0-.394 1.04zm.56-1.24 1.28 1.536a.6.6 0 0 1-.211.107l-.549-1.923-.549-1.923a3.4 3.4 0 0 0-1.251.667zm.52-.28.485 1.94c-.013.004.008-.003.075-.009q.095-.01.28-.011v-4c-.428 0-.889.03-1.325.14zm.84-.08v2c.717 0 1.587.106 2.627.348l.453-1.948.453-1.948c-1.254-.292-2.436-.452-3.533-.452zm3.08.4-.453 1.948c.212.05.36.097.458.137.1.04.119.06.091.04a.9.9 0 0 1-.224-.27 1.2 1.2 0 0 1-.152-.575h4c0-1.065-.566-1.866-1.236-2.364-.605-.45-1.341-.704-2.031-.864zm1.72 1.28h-2c0-.01 0 .021-.012.11q-.016.126-.064.35l1.956.42 1.956.42c.09-.422.164-.877.164-1.3zm-.12.88-1.977-.304c.003-.016-.006.035-.047.198q-.057.22-.166.597-.22.755-.636 2.063l1.906.606 1.906.606q.423-1.33.664-2.157c.146-.502.277-.98.327-1.305zm-.92 3.16-1.906-.607-1.44 4.52 1.906.607 1.906.607 1.44-4.52zM161 52.48l.83 1.82c2.007-.915 3.673-2.08 4.878-3.553l-1.548-1.267-1.548-1.266c-.715.873-1.823 1.708-3.442 2.446zm4.16-3 1.531 1.287a17.5 17.5 0 0 0 2.709-4.423l-1.84-.784-1.84-.784a13.5 13.5 0 0 1-2.091 3.417zm2.4-3.92 1.84.784c.624-1.465.983-2.277 1.109-2.53l-1.789-.894-1.789-.894c-.194.387-.608 1.335-1.211 2.75zm1.16-2.64 1.789.894a1.14 1.14 0 0 1-.411.437 1.2 1.2 0 0 1-.618.189v-4c-.491 0-1.024.117-1.518.429-.49.31-.82.734-1.031 1.157zm.76-.48v2c.432 0 1.19.138 2.36.56l.68-1.88.68-1.88c-1.337-.485-2.606-.8-3.72-.8zm3.04.68-.645 1.893c.248.084.433.163.568.23.137.07.197.116.21.126s-.052-.039-.121-.164a1.1 1.1 0 0 1-.132-.525h4c0-1.082-.582-1.882-1.193-2.39-.581-.482-1.311-.814-2.042-1.063zm1.88 1.56h-2c0 .134-.053.491-.345 1.142l1.825.818 1.825.818c.402-.896.695-1.845.695-2.778zm-.52 1.96-1.825-.818c-.317.707-.783 1.63-1.411 2.78l1.756.958 1.756.958c.652-1.197 1.173-2.22 1.549-3.06zm-1.48 2.92-1.756-.958c-.579 1.063-1.316 2.171-2.219 3.325L170 53.16l1.575 1.233c1.017-1.3 1.88-2.591 2.581-3.875zm-2.4 3.6-1.575-1.233c-.918 1.173-1.628 1.89-2.135 2.266l1.19 1.607 1.19 1.607c.933-.69 1.903-1.734 2.905-3.014zm-2.52 2.64-1.151-1.636c-.654.46-1.223.798-1.712 1.032L165.48 57l.863 1.804a16 16 0 0 0 2.288-1.368zm-2 1.2-.828-1.82q-.825.374-1.503.623l.691 1.877.691 1.877a26 26 0 0 0 1.777-.736zm18.847-11.72 1.886.667.02-.058.017-.06zm-4.44 12.56 1.851.757.019-.045.016-.045zm-.8 1.24 1.25 1.562.008-.007.009-.007zm-1.28.32-.105 1.997.053.003h.052zm-1.52-.08.105-1.997-.052-.003h-.053zm-1.2-2.72 1.965.374.001-.008.002-.008zm.32-1.72 1.965.374.002-.011.002-.012zm1.72-9.64 1.969.351.011-.06.007-.062zm.28-1.8-1.94-.485-.009.036-.008.037zm.72-1.04.838 1.816.029-.013.028-.014zm1.32-.32.105 1.997.047-.002.047-.005zm5.08.08-.632 1.897.09.03.092.022zm-6.36 25.52 1.557 1.255zm-4.4.4-1.518 1.302zm.28-4.96 1.628 1.163.007-.011.008-.011zm4.4-.48-1.632 1.156.016.022.016.022zm6.6-19.76h-2c0-.105.01-.18.013-.207l.006-.036.001-.009.001-.002-.002.008-.005.023-.022.081c-.04.145-.107.364-.209.67l1.897.632 1.898.633c.111-.335.203-.629.27-.871.041-.147.152-.54.152-.922zm-.32 1.16-1.897-.633a41 41 0 0 0-.426 1.324l1.923.549 1.923.55c.039-.137.157-.506.375-1.157zm-.4 1.24-1.885-.667-4.44 12.56 1.885.667 1.886.667 4.44-12.56zm-4.44 12.56-1.851-.757c-.086.21-.159.344-.209.423-.052.08-.061.07-.006.026l1.266 1.548 1.267 1.548c.669-.548 1.093-1.319 1.384-2.03zm-.8 1.24-1.249-1.562c.146-.117.256-.141.244-.138l-.074.011a2 2 0 0 1-.201.009v4c.746 0 1.732-.12 2.53-.758zm-1.28.32.105-1.997-1.52-.08-.105 1.997-.105 1.997 1.52.08zm-1.52-.08v-2q-.111 0-.174-.006t-.068-.008c-.005 0 .018.003.06.018s.114.045.202.1l-1.06 1.696-1.06 1.696c.709.443 1.531.504 2.1.504zm-1.04-.2 1.06-1.696c.356.222.518.523.58.693.053.147.04.213.04.123h-4c0 .597.115 1.86 1.26 2.576zm-.32-.88h2q-.001-.599.125-1.266l-1.965-.374-1.964-.374a10.7 10.7 0 0 0-.196 2.014zm.16-1.64 1.968.358q.158-.873.317-1.704l-1.965-.374-1.964-.374q-.162.849-.324 1.736zm.32-1.72 1.969.351 1.72-9.64-1.969-.351-1.969-.351-1.72 9.64zm1.72-9.64 1.987.23c.075-.652.16-1.188.25-1.618l-1.957-.412-1.957-.412a22 22 0 0 0-.31 1.983zm.28-1.8 1.94.485c.026-.1.036-.081-.015-.007a.9.9 0 0 1-.367.298l-.838-1.816-.838-1.816c-1.107.51-1.609 1.519-1.822 2.37zm.72-1.04.895 1.789c.08-.04.24-.096.53-.112l-.105-1.997-.105-1.997c-.723.038-1.443.195-2.109.528zm1.32-.32.199 1.99c.442-.044 1.05-.07 1.841-.07v-4c-.862 0-1.614.028-2.239.09zm2.04-.08v2h1.72v-4h-1.72zm1.72 0v2c.22 0 .387.01.51.026q.09.011.136.021l.042.01.632-1.897.633-1.897c-.615-.205-1.3-.263-1.953-.263zm1.32.16-.45 1.949a1.37 1.37 0 0 1-.781-.538 1.23 1.23 0 0 1-.249-.691h4c0-.475-.102-1.089-.508-1.651a2.63 2.63 0 0 0-1.562-1.018zm-5.36 22.72h-2c0 .573-.17 1.065-.557 1.544l1.557 1.256 1.557 1.255c.947-1.174 1.443-2.548 1.443-4.055zm-1 2.8-1.557-1.256c-.308.382-.587.496-.963.496v4c1.651 0 3.052-.713 4.077-1.984zm-2.52 1.24v-2c-.222 0-.282-.049-.361-.142l-1.519 1.302-1.518 1.302c.88 1.027 2.073 1.538 3.398 1.538zm-1.88-.84 1.519-1.302c-.154-.178-.239-.377-.239-.698h-4c0 1.226.395 2.36 1.202 3.302zm-.72-2h2c0-.58.177-1.167.628-1.797l-1.628-1.163-1.627-1.162c-.883 1.236-1.373 2.622-1.373 4.122zm1-2.96 1.643 1.14c.372-.535.633-.58.837-.58v-4c-1.769 0-3.161.915-4.123 2.3zm2.48-1.44v2c.151 0 .204.028.206.029q.005.002.02.014c.01.01.032.03.062.073l1.632-1.156 1.632-1.156c-.851-1.202-2.118-1.804-3.552-1.804zm1.92.96-1.6 1.2c.203.27.32.589.32 1.04h4c0-1.255-.362-2.43-1.12-3.44z" mask="url(#b)"/></g><defs><filter id="a" width="195.955" height="81.6" x="0" y="0" color-interpolation-filters="sRGB" filterUnits="userSpaceOnUse"><feFlood flood-opacity="0" result="BackgroundImageFix"/><feColorMatrix in="SourceAlpha" result="hardAlpha" values="0 0 0 0 0 0 0 0 0 0 0 0 0 0 0 0 0 0 127 0"/><feOffset dy="4"/><feGaussianBlur stdDeviation="2"/><feComposite in2="hardAlpha" operator="out"/><feColorMatrix values="0 0 0 0 0 0 0 0 0 0 0 0 0 0 0 0 0 0 0.25 0"/><feBlend in2="BackgroundImageFix" result="effect1_dropShadow_1040_30"/><feBlend in="SourceGraphic" in2="effect1_dropShadow_1040_30" result="shape"/></filter></defs></svg>