<svg xmlns="http://www.w3.org/2000/svg" xmlns:xlink="http://www.w3.org/1999/xlink" width="501" height="482" viewBox="0 0 501 482">
  <defs>
    <clipPath id="clip-Web_1920_1">
      <rect width="501" height="482"/>
    </clipPath>
  </defs>
  <g id="Web_1920_1" data-name="Web 1920 – 1" clip-path="url(#clip-Web_1920_1)">
    <rect width="501" height="482" fill="rgba(255,255,255,0)"/>
    <path id="Path_1" data-name="Path 1" d="M74.679,406.112s32.812-12.106,91.539,8.384c57.08,19.911,82.184,18.266,94.27,17.605,27.654-1.519,89.075-23.348,108.1-26.868,18.489-3.421,62.291-10.781,105.292,11.126C496.31,427.788,500,432.091,500,432.091s-33.792-15.063-59.515-17.024-55.974-3.651-87.854,6.1-73.075,24.891-108.883,23.048c-47.815-2.458-103.1-27.382-124.661-33.188a150.692,150.692,0,0,0-44.408-4.912" fill="#0054a6"/>
    <path id="Path_2" data-name="Path 2" d="M425.323,440.667s-32.813-12.109-91.544,8.379c-57.076,19.913-82.181,18.268-94.266,17.6-27.656-1.514-89.077-23.341-108.1-26.865C112.923,436.361,69.12,429,26.117,450.91,3.69,462.34,0,466.643,0,466.643s33.793-15.064,59.513-17.023,55.974-3.655,87.851,6.1,73.078,24.889,108.888,23.049c47.814-2.458,103.1-27.387,124.656-33.19a150.594,150.594,0,0,1,44.414-4.909" fill="#0054a6"/>
    <path id="Path_3" data-name="Path 3" d="M248.95,333.576c.052-6.024.585-7.07,4.26-7.3l1.845-.507c.79-.518.8-2.354-.243-2.626-4.2-.036-7.609.2-11.809.163-6.825-.063-11.546-.364-15.484-.4-.79.258-.8,2.088-.021,2.623l3.4.814c6.553,1.107,6.81,1.63,6.749,8.708l-.03,3.408c-.031,3.669-.308,5.24-1.106,6.28-1.059,1.3-3.953,2.063-8.678,2.02-5.773-.05-13.63-1.952-18.824-8.29-5.456-6.335-6.957-15-6.887-22.86.145-16.508,8.389-29.014,25.711-28.862,9.974.083,16.757,4.861,18.773,14.316.516,1.05,2.877.807,3.148.025-.192-7.865-.937-12.85-.911-15.732-1.312-.012-4.194-.561-6.292-.842a66.532,66.532,0,0,0-13.108-1.686c-13.646-.119-24.442,3.981-31.593,11.256a32.827,32.827,0,0,0-9.126,22.983c-.073,8.383,2.479,16.532,8.464,22.612,7.28,7.663,18.276,10.9,30.088,11.006a84.142,84.142,0,0,0,19.18-2.452,19.414,19.414,0,0,1,4.728-.746,1.184,1.184,0,0,0,.014-1.31c-1.828-1.064-2.333-3.428-2.3-7.1Z" fill="#0054a6"/>
    <path id="Path_4" data-name="Path 4" d="M384.024,284.174c-20.473-.178-35.3,14.63-35.472,34.546-.152,17.559,12.569,33.133,34.875,33.328,19.684.168,34.774-14.113,34.94-33.505.156-17.818-11.509-34.17-34.343-34.369m-1.348,3.92c15.747.138,22.42,17.491,22.294,32.168-.177,19.914-9.434,27.957-20.72,27.859-16.794-.142-22.408-18.541-22.287-32.166.181-20.967,11-27.947,20.713-27.861" fill="#0054a6"/>
    <path id="Path_5" data-name="Path 5" d="M478.535,311.2c.071-7.862.144-16.246,1.483-19.377.8-1.567,2.379-1.819,4.218-2.062l2.366-.5a2.056,2.056,0,0,0-.236-2.886c-3.677.23-6.041.21-10.238.172-3.936-.032-7.612-.065-11.546-.362-.791.255-1.069,2.088-.025,2.883l2.1.281c2.62.284,4.187,1.086,4.963,2.4,1.813,2.9,1.733,12.069,1.668,19.407l-.167,19.131c-.015,1.571-.017,2.1-.282,2.355-1.045-.534-10.14-11.094-14.037-15.585l-9.878-10.831c-3.378-3.7-14.034-16.108-15.572-20.314a61.654,61.654,0,0,1-6.825.2c-2.362-.019-7.871-.07-11.546-.361-1.052.251-1.068,2.085-.549,2.875l1.575.278a17.772,17.772,0,0,1,5.228,1.879c3.125,2.912,3.112,4.483,3.048,12.082l-.206,23.322c-.07,7.862-.144,16.511-1.483,19.379-.536,1.571-2.379,2.078-4.219,2.324l-2.367.507c-.793.515-.542,2.35.239,2.883,3.411-.231,6.039-.474,10.241-.438,3.67.034,7.608.332,11.278.624a1.864,1.864,0,0,0,.285-2.881l-2.358-.282c-2.355-.546-3.925-1.082-4.963-2.665-1.546-2.9-1.467-12.067-1.4-19.4l.163-19.133c.049-5.24.056-6.287.317-6.284,1.565,1.586,4.68,5.281,10.919,12.411L463.588,339.9c7.017,7.922,9.872,11.356,11.43,13.464a4.03,4.03,0,0,0,3.425-1.28c-.245-2.361-.138-14.414-.114-17.3Z" fill="#0054a6"/>
    <path id="Path_6" data-name="Path 6" d="M273.469,351.087a32.348,32.348,0,0,1-16.241-4.071c-1.555-2.109-2.806-8.936-2.754-14.963.535-1.042,2.372-1.027,3.154-.5,1.794,5,6.949,15.522,16.66,15.609,7.35.061,11.587-4.355,11.64-10.382.048-5.505-2.538-9.983-9.85-14.24l-4.18-2.392c-7.311-4.257-13.82-10.343-13.742-18.989.088-9.961,7.506-18.02,21.679-17.9a29.669,29.669,0,0,1,9.961,1.4c2.094.277,9.967.349,14.954.393l40.156.35c4.986.041,6.3-.209,7.633-2.557a1.6,1.6,0,0,1,1.051-.251c.526.005,1.052.008,1.31.535a65.624,65.624,0,0,0-1.71,15.447c-.271.788-2.108,1.031-2.891.237-1.245-7.61-3.065-9.464-13.565-9.552l-5.771-.052c-2.362-.018-2.627.24-2.66,4.173l-.372,42.451c-.09,10.482.954,10.753,5.41,11.314l3.67.559a2.379,2.379,0,0,1-.287,2.881c-5.772-.315-10.228-.614-14.43-.648-4.459-.043-8.927.18-15.225.387-.784-.528-1.028-2.365-.239-2.884l4.205-.489c4.465-.483,5.518-.737,5.608-11.219l.374-42.454c.032-3.931-.228-4.192-2.589-4.212l-5.51-.051c-9.187-.08-12.338.154-13.718,8.006a3.306,3.306,0,0,1,.245,1.576c-.532,1.04-2.367,1.026-3.151.495a12.693,12.693,0,0,0-.774-1.842l.006-.261c-1.8-4.733-5.165-9.742-12.516-9.806-7.874-.068-11.064,4.883-11.11,10.124-.037,4.192,2.811,8.671,9.08,12.134l6.27,3.2c6.273,3.462,13.3,9.55,13.216,19.508-.1,11.269-8.828,19.055-23,18.929" fill="#0054a6"/>
    <path id="Path_7" data-name="Path 7" d="M347.234,379.25c-11.6,6.188-51.918,24.706-99.159,24.294-57.475-.5-107.845-32.911-149.32-62.363-13.042-9.287-20.865-15.121-31.567-22.029a78.059,78.059,0,0,0-15.154-7.733c1.061-1.3,3.706-3.634,5.558-5.455L69.5,294.8c7.406-6.749,14.808-12.974,18.5-15.04a31.814,31.814,0,0,1,12.1-3.56c.793-.781.81-2.615-.236-3.148-3.938.227-8.4.186-12.861.149-4.726-.042-9.974-.088-14.433-.39a1.969,1.969,0,0,0-.289,3.147l3.4.811c1.835.544,2.356.809,2.352,1.334a3.125,3.125,0,0,1-1.067,2.083,124.356,124.356,0,0,1-10.333,10.922s-19.058,18.44-20.907,20a7.513,7.513,0,0,1-3.691,1.539c-1.575-.013-1.814-2.637-1.791-5l.131-15.2c.121-13.626.4-15.719,8.019-16.438l2.627-.239c.79-.518.551-2.88-.237-3.146-5.773.209-10.237.171-15.222.127-6.038-.053-10.236-.087-16.533-.407-.79.257-1.072,2.613-.29,3.144l3.145.291c7.607.85,7.851,2.948,7.731,16.576l-.413,47.169c-.121,13.89-.4,15.46-7.23,16.448l-2.626.239a2.7,2.7,0,0,0,.232,3.408c5.251-.215,9.716-.438,15.227-.387,4.987.041,9.446.341,16,.663.792-.519,1.076-2.875.291-3.407l-3.67-.293c-7.341-.85-7.588-2.687-7.467-16.576l.146-16.771c.043-4.716.316-6.028,2.416-6.271a4.3,4.3,0,0,1,3.146.555c9.931,4.8,16.439,11.147,32.861,23.87,57.624,43.744,113.267,73.583,169.954,74.076,59.047.515,89.474-27.261,98.735-35.829" fill="#0054a6"/>
    <path id="Path_8" data-name="Path 8" d="M183.551,308.635l-.205,23.584c-.027,2.884-.133,14.939.108,17.3a4.026,4.026,0,0,1-3.421,1.28c-1.556-2.112-4.412-5.543-11.431-13.464L146,310.664c-6.5-7.13-9.616-10.826-11.175-12.41-.263-.005-.272,1.046-.319,6.285l-.166,19.132c-.064,7.335-.143,16.507,1.4,19.4,1.039,1.58,2.608,2.118,5.23,2.666l2.1.277a1.871,1.871,0,0,1-.287,2.884c-3.673-.294-7.346-.591-11.28-.623s-6.826.2-10.24.431a2.053,2.053,0,0,1,.025-2.882l2.1-.506c1.839-.245,3.681-.751,4.219-2.32,1.34-2.87,1.414-11.519,1.483-19.381l.2-22.8c.056-6.553-.448-8.915-2-11.024a6.916,6.916,0,0,0-5.748-3.195l-6.561-.058c-4.466.487-5.523,1.264-5.615,11.745l-.394,45.073c-3.386-2.648-8.605-6.364-11.477-8.226l.331-37.733c.091-10.481-.694-10.751-5.414-11.316l-2.1-.28c-.518-.792-.5-2.624.285-2.882,4.2.3,7.609.33,12.072.368s20.207.175,24.408.213c2.1.019,8.922.078,11.287-.164,1.537,4.206,12.191,16.617,15.567,20.315l9.882,10.832c3.9,4.489,12.991,15.051,14.036,15.585.263-.263.269-.785.282-2.357l.167-19.131c.066-7.337.145-16.508-1.667-19.409-.775-1.317-2.343-2.116-4.965-2.4l-2.1-.281c-1.041-.8-.765-2.628.025-2.882,3.935.3,7.608.327,11.546.363,4.2.034,6.561.056,10.238-.173a2.052,2.052,0,0,1,.237,2.885l-2.366.5c-1.839.247-3.417.5-4.217,2.061-1.341,3.132-1.415,11.52-1.483,19.38" fill="#0054a6"/>
    <rect id="Rectangle_1" data-name="Rectangle 1" width="126.239" height="7.077" transform="translate(186.701 245.289)" fill="#0054a6"/>
    <rect id="Rectangle_2" data-name="Rectangle 2" width="157.471" height="9.174" transform="translate(171.207 257.082)" fill="#0054a6"/>
    <rect id="Rectangle_3" data-name="Rectangle 3" width="126.237" height="4.718" transform="translate(186.753 175.582)" fill="#0054a6"/>
    <rect id="Rectangle_4" data-name="Rectangle 4" width="5.248" height="30.923" transform="translate(190.706 139.64)" fill="#0054a6"/>
    <rect id="Rectangle_5" data-name="Rectangle 5" width="5.247" height="31.186" transform="translate(303.824 139.718)" fill="#0054a6"/>
    <rect id="Rectangle_6" data-name="Rectangle 6" width="31.494" height="4.716" transform="translate(234.335 67.349)" fill="#0054a6"/>
    <rect id="Rectangle_7" data-name="Rectangle 7" width="39.891" height="4.718" transform="translate(230.11 104.3)" fill="#0054a6"/>
    <path id="Path_9" data-name="Path 9" d="M234.342,62.622c.005-6.816,5-12.315,11.82-13.882l7.871,0c6.822,1.577,11.805,7.084,11.8,13.9Z" fill="#0054a6"/>
    <rect id="Rectangle_8" data-name="Rectangle 8" width="31.495" height="22.801" transform="translate(234.323 76.783)" fill="#0054a6"/>
    <path id="Path_10" data-name="Path 10" d="M235.322,154.345a14.566,14.566,0,1,1,14.689,14.686,14.612,14.612,0,0,1-14.689-14.686" fill="#0054a6"/>
    <rect id="Rectangle_9" data-name="Rectangle 9" width="3.675" height="31.71" transform="translate(248.276 12.316)" fill="#0054a6"/>
    <path id="Path_11" data-name="Path 11" d="M245.67,4.191A4.369,4.369,0,0,1,250.134,0a4.312,4.312,0,0,1,4.195,4.2,3.879,3.879,0,0,1-2.1,3.143l-4.46,0c-.788-.524-2.1-1.836-2.1-3.144" fill="#0054a6"/>
    <path id="Path_12" data-name="Path 12" d="M305.106,193.441l-.034,46.91-110.491-.078.034-46.909-7.875-.006,0-7.076,126.237.087v7.077Zm-15.746-.01-.029,35.9,7.876.005.026-35.9-7.873,0M210.6,229.278l.027-35.9-8.135-.006-.026,35.9,8.134.007m21,.015.026-35.9-13.123-.01-.027,35.9,13.124.011m28.868.019.029-35.9-21-.016-.028,35.9,20.994.014m7.9-35.9-.026,35.9,13.121.01.028-35.9-13.123-.007" fill="#0054a6"/>
    <path id="Path_13" data-name="Path 13" d="M250.034,134.962A19.2,19.2,0,0,0,230.6,154.341l-.009,16.51-29.923-.021.023-30.923c5.785-13.624,14.454-22.266,29.415-26.187l39.89.028c14.959,3.942,23.35,12.6,29.115,26.227l-.024,30.924-29.654-.021s-.254-16.509.009-16.509a19.529,19.529,0,0,0-19.407-19.407" fill="#0054a6"/>
  </g>
</svg>
